# This file uses centimeters as units for non-parametric coordinates.

mtllib Auricom.mtl
g default
v -0.089469 0.389822 -4.317675
v -0.148229 0.382477 -4.065327
v -0.001327 0.338406 -4.317675
v -0.001327 0.272300 -4.065327
v 0.079469 0.389822 -4.317675
v 0.138229 0.382477 -4.065327
v 0.042743 0.492653 -4.317675
v 0.079469 0.544069 -4.065327
v -0.060088 0.492653 -4.317675
v -0.096814 0.544069 -4.065327
v 1.620000 -0.500000 -2.600000
v 0.750000 -0.140000 -2.590000
v 1.550000 -0.860000 -2.600000
v 1.550000 -0.990000 4.300000
v 1.620000 -0.620000 4.090000
v 0.750000 -0.260000 4.310000
v 1.080000 -0.130000 4.100000
v 0.590000 0.240000 -2.580000
v -0.930000 0.000000 -3.650000
v 0.260000 0.990000 -2.570000
v -0.510000 0.800000 -3.640000
v -0.750000 -0.150000 -2.060000
v 0.260000 0.860000 -2.040000
v 0.640000 0.180000 -2.050000
v -0.200000 0.850000 -3.700000
v 0.260000 0.370000 0.090000
v 0.490000 0.140000 0.090000
v 0.170000 0.630000 -4.070000
v 0.590000 0.900000 -2.780000
v 0.740000 0.410000 -2.740000
v 1.080000 -0.080000 0.860000
v 0.750000 -0.200000 0.860000
v 1.550000 -0.920000 0.850000
v 1.620000 -0.560000 0.850000
v 0.240000 0.170000 0.090000
v 0.350000 0.000000 -3.650000
v 0.930000 0.000000 -3.650000
v 0.320000 0.250000 -2.050000
v -0.320000 0.250000 -2.050000
v 0.340000 0.270000 -4.080000
v 0.510000 0.800000 -3.640000
v 0.630000 0.410000 -3.660000
v 0.480000 0.270000 -3.710000
v 0.200000 0.850000 -3.700000
v 0.750000 -0.150000 -2.060000
v 1.080000 -0.020000 -2.050000
v -1.620000 -0.500000 -2.600000
v -0.750000 -0.140000 -2.590000
v -1.550000 -0.860000 -2.600000
v -1.550000 -0.990000 4.300000
v -1.620000 -0.620000 4.090000
v -0.750000 -0.260000 4.310000
v -1.080000 -0.130000 4.100000
v -0.590000 0.240000 -2.580000
v -0.340000 0.270000 -4.080000
v -0.260000 0.990000 -2.570000
v -0.630000 0.410000 -3.660000
v -1.080000 -0.020000 -2.050000
v -0.260000 0.860000 -2.040000
v -0.640000 0.180000 -2.050000
v -0.480000 0.270000 -3.710000
v -0.260000 0.370000 0.090000
v -0.490000 0.140000 0.090000
v -0.170000 0.630000 -4.070000
v -0.590000 0.900000 -2.780000
v -0.740000 0.410000 -2.740000
v -1.080000 -0.080000 0.860000
v -0.750000 -0.200000 0.860000
v -1.550000 -0.920000 0.850000
v -1.620000 -0.560000 0.850000
v -0.250000 0.170000 0.090000
v -0.350000 0.000000 -3.650000
v 0.260000 0.610000 -0.970000
v -0.260000 0.610000 -0.970000
v 0.450000 0.520000 -2.040000
v -0.450000 0.520000 -2.040000
vt 0.389294 0.181641
vt 0.389294 0.115234
vt 0.454456 0.115234
vt 0.454456 0.181641
vt 0.454456 0.115234
vt 0.454456 0.181641
vt 0.389294 0.181641
vt 0.389294 0.115234
vt 0.454456 0.115234
vt 0.454456 0.181641
vt 0.389294 0.181641
vt 0.389294 0.115234
vt 0.389294 0.181641
vt 0.389294 0.115234
vt 0.454456 0.115234
vt 0.454456 0.181641
vt 0.454456 0.181641
vt 0.454456 0.115234
vt 0.389294 0.115234
vt 0.389294 0.181641
vt 0.668514 0.371639
vt 0.675236 0.371639
vt 0.675236 0.378361
vt 0.668514 0.371639
vt 0.675236 0.371639
vt 0.675236 0.378361
vt 0.668514 0.371639
vt 0.675236 0.371639
vt 0.675236 0.378361
vt 0.613281 1.000000
vt 0.613281 0.757813
vt 0.500000 0.757813
vt 0.500000 0.945313
vt 0.500000 0.757813
vt 0.500000 0.945313
vt 0.613281 1.000000
vt 0.613281 0.757813
vt 0.867188 0.500000
vt 0.625000 0.500000
vt 0.625000 0.585938
vt 0.867188 0.585938
vt 0.867188 0.500000
vt 0.867188 0.585938
vt 0.625000 0.585938
vt 0.625000 0.500000
vt 0.492188 0.500000
vt 0.250000 0.500000
vt 0.250000 0.718750
vt 0.492188 0.718750
vt 0.347656 0.531250
vt 0.347656 0.718750
vt 0.257813 0.718750
vt 0.257813 0.531250
vt 0.257813 0.531250
vt 0.347656 0.531250
vt 0.347656 0.718750
vt 0.257813 0.718750
vt 0.257813 0.718750
vt 0.347656 0.718750
vt 0.347656 0.531250
vt 0.257813 0.531250
vt 1.000000 0.148438
vt 0.875000 0.148438
vt 1.000000 0.000000
vt 0.875000 0.000000
vt 0.867188 0.585938
vt 0.625000 0.585938
vt 0.625000 0.726563
vt 0.867188 0.726563
vt 0.867188 0.726563
vt 0.625000 0.726563
vt 0.625000 0.585938
vt 0.867188 0.585938
vt 0.867188 0.585938
vt 0.625000 0.585938
vt 0.625000 0.500000
vt 0.867188 0.500000
vt 0.867188 0.500000
vt 0.625000 0.500000
vt 0.625000 0.585938
vt 0.867188 0.585938
vt 0.500000 0.945313
vt 0.500000 0.757813
vt 0.613281 0.757813
vt 0.613281 1.000000
vt 0.500000 0.945313
vt 0.500000 0.757813
vt 0.613281 0.757813
vt 0.613281 1.000000
vt 0.832031 0.007813
vt 0.625000 0.164063
vt 0.625000 0.000000
vt 0.832031 0.078125
vt 0.753906 0.007813
vt 0.753906 0.078125
vt 0.500000 0.164063
vt 0.500000 0.000000
vt 0.832031 0.101563
vt 0.753906 0.046875
vt 0.832031 0.000000
vt 0.832031 0.101563
vt 0.832031 0.000000
vt 0.753906 0.046875
vt 0.500000 0.164063
vt 0.500123 0.312500
vt 0.625000 0.164063
vt 0.500000 0.164063
vt 0.625000 0.164063
vt 0.500123 0.312500
vt 0.500000 0.500000
vt 0.625000 0.500000
vt 0.500000 0.500000
vt 0.625000 0.500000
vt 0.666586 0.171875
vt 0.742188 0.085938
vt 0.628906 0.281250
vt 0.666586 0.171875
vt 0.628906 0.281250
vt 0.742188 0.085938
vt 0.863281 0.281250
vt 0.863281 0.125000
vt 0.863281 0.125000
vt 0.863281 0.281250
vt 0.625000 -0.000000
vt 0.753906 0.000000
vt 0.753906 0.101563
vt 0.625000 0.101563
vt 0.732595 0.064504
vt 0.711428 0.101563
vt 0.709588 0.076121
vt 0.642405 0.064504
vt 0.664492 0.076121
vt 0.663572 0.101563
vt 0.000000 0.500000
vt 0.000000 0.640625
vt 0.136719 0.500000
vt 0.250000 0.500000
vt 0.250000 0.640625
vt 0.136719 0.500000
vt 0.000000 0.500000
vt 0.250000 0.640625
vt 0.000000 1.000000
vt 0.250000 0.500000
vt 0.000000 0.640625
vt 0.000000 1.000000
vt 0.019531 0.953125
vt 0.000000 0.640625
vt 0.250000 0.718750
vt 0.019531 0.953125
vt 0.257813 0.718750
vt 0.000000 0.640625
vt 0.500000 0.500000
vt 0.625000 0.500000
vt 0.625000 0.750000
vt 0.500000 0.750000
vt 0.500000 0.750000
vt 0.625000 0.750000
vt 0.625000 0.500000
vt 0.500000 0.500000
vt 0.875000 0.750000
vt 0.625000 0.750000
vt 0.625000 0.921875
vt 0.875000 0.921875
vt 0.875000 0.921875
vt 0.625000 0.921875
vt 0.625000 0.750000
vt 0.875000 0.750000
vt 0.875000 0.804687
vt 0.625000 0.804688
vt 0.625000 0.750000
vt 0.875000 0.750000
vt 0.875000 0.750000
vt 0.625000 0.750000
vt 0.625000 0.804688
vt 0.875000 0.804688
vt 0.500000 0.750000
vt 0.250000 0.750000
vt 0.250000 0.921875
vt 0.500000 0.921875
vt 0.500000 0.921875
vt 0.250000 0.921875
vt 0.250000 0.750000
vt 0.500000 0.750000
vt 0.500000 0.789063
vt 0.250000 0.789063
vt 0.250000 0.750000
vt 0.500000 0.750000
vt 0.500000 0.753133
vt 0.250000 0.753133
vt 0.250000 0.789063
vt 0.500000 0.789063
vt 0.625000 1.000000
vt 0.875000 1.000000
vt 0.875000 0.921875
vt 0.625000 0.921875
vt 0.625000 0.921875
vt 0.875000 0.921875
vt 0.875000 1.000000
vt 0.625000 1.000000
vt 0.500000 0.921875
vt 0.500000 1.000000
vt 0.250000 1.000000
vt 0.250000 0.921875
vt 0.500000 0.921875
vt 0.250000 0.921875
vt 0.250000 1.000000
vt 0.500000 1.000000
vt 0.175121 0.206797
vt 0.113941 0.206797
vt 0.113941 -0.007813
vt 0.175121 -0.007813
vt 0.323310 0.058797
vt 0.300953 0.316203
vt 0.223565 0.058797
vt 0.235962 0.064311
vt 0.334351 0.064311
vt 0.258014 0.310689
vt -0.012004 0.128621
vt 0.090129 0.128621
vt 0.090129 0.230754
vt -0.012004 0.128621
vt 0.090129 0.128621
vt 0.090129 0.230754
vt 0.488337 0.205926
vt 0.250345 0.205926
vt 0.249655 0.153449
vt 0.451086 0.153449
vt 0.012353 0.205926
vt 0.011663 0.153449
vt 0.451086 0.200803
vt 0.249655 0.200803
vt 0.250345 0.148326
vt 0.488337 0.148326
vt 0.011663 0.200803
vt 0.012353 0.148326
vt 0.124581 0.101143
vt 0.266044 0.101143
vt 0.266044 0.242607
vt 0.124581 0.101143
vt 0.266044 0.101143
vt 0.266044 0.242607
vt 0.124581 0.101143
vt 0.266044 0.101143
vt 0.266044 0.242607
vt 0.266044 0.101143
vt 0.266044 0.242607
vt 0.124581 0.242607
vt 0.108956 0.124291
vt 0.250419 0.124291
vt 0.215456 0.235084
vt 0.143919 0.235084
vt 0.266044 0.101143
vt 0.266044 0.242607
vt 0.124581 0.242607
vt 0.124581 0.101143
vt 0.266044 0.101143
vt 0.266044 0.242607
vt 0.101499 0.215397
vt 0.101499 0.128353
vt 0.296938 0.128353
vt 0.101499 0.215397
vt 0.101499 0.128353
vt 0.296938 0.128353
vt 0.296938 0.215397
vt 0.101499 0.215397
vt 0.101499 0.128353
vt 0.296938 0.128353
vt 0.101499 0.215397
vt 0.101499 0.128353
vt 0.296938 0.128353
vt 0.101499 0.215397
vt 0.101499 0.128353
vt 0.296938 0.128353
vt 0.296938 0.215397
vt 0.101499 0.215397
vt 0.101499 0.128353
vt 0.296938 0.128353
vt 0.296938 0.215397
vt 0.276383 0.192429
vt 0.059555 0.192429
vt 0.117420 0.135696
vt 0.218518 0.135696
vt 0.101499 0.215397
vt 0.101499 0.128353
vt 0.296938 0.128353
vn -0.938313 0.286707 -0.193310
vn -0.938313 0.286707 -0.193310
vn -0.938313 0.286707 -0.193310
vn -0.938313 0.286707 -0.193310
vn -0.557820 -0.811374 -0.174671
vn -0.557820 -0.811374 -0.174671
vn -0.557820 -0.811374 -0.174671
vn -0.557820 -0.811374 -0.174671
vn 0.000000 0.981615 -0.190870
vn 0.000000 0.981615 -0.190870
vn 0.000000 0.981615 -0.190870
vn 0.000000 0.981615 -0.190870
vn 0.922620 0.333168 -0.194348
vn 0.922620 0.333168 -0.194348
vn 0.922620 0.333168 -0.194348
vn 0.922620 0.333168 -0.194348
vn 0.582241 -0.793966 -0.174966
vn 0.582241 -0.793966 -0.174966
vn 0.582242 -0.793966 -0.174966
vn 0.582242 -0.793966 -0.174966
vn 0.000000 0.000000 -1.000000
vn 0.000000 0.000000 -1.000000
vn 0.000000 0.000000 -1.000000
vn -0.000000 0.000000 -1.000000
vn -0.000000 0.000000 -1.000000
vn -0.000000 0.000000 -1.000000
vn 0.000000 0.000000 -1.000000
vn 0.000000 0.000000 -1.000000
vn 0.000000 0.000000 -1.000000
vn -0.660146 -0.735606 0.151956
vn -0.660146 -0.735606 0.151956
vn -0.660146 -0.735606 0.151956
vn 0.790591 -0.153726 -0.592734
vn 0.790591 -0.153726 -0.592734
vn 0.790591 -0.153726 -0.592734
vn 0.826747 -0.467580 -0.312824
vn 0.826747 -0.467580 -0.312824
vn 0.826747 -0.467580 -0.312824
vn 0.851989 0.416769 -0.316889
vn 0.852168 0.414709 -0.319102
vn 0.852106 0.415431 -0.318327
vn 0.852431 0.411496 -0.322541
vn 0.000000 -0.216930 -0.976187
vn 0.000000 -0.216930 -0.976187
vn 0.000000 -0.216930 -0.976187
vn 0.376104 0.397400 0.837030
vn 0.376654 0.399485 0.835789
vn 0.377165 0.401430 0.834626
vn 0.377339 0.402093 0.834228
vn 0.866761 0.484366 0.118807
vn 0.866761 0.484367 0.118807
vn 0.866761 0.484366 0.118807
vn -0.213579 -0.976361 -0.033220
vn -0.130247 -0.990651 -0.040575
vn -0.208207 -0.977504 -0.033706
vn -0.119042 -0.992020 -0.041535
vn 0.981609 -0.190868 -0.003535
vn 0.982138 -0.188124 -0.003800
vn 0.981653 -0.190645 -0.003556
vn 0.982166 -0.187980 -0.003814
vn -0.000000 0.000000 1.000000
vn -0.000000 0.000000 1.000000
vn -0.000000 0.000000 1.000000
vn 0.867328 0.484683 0.113244
vn 0.867328 0.484683 0.113244
vn 0.867328 0.484683 0.113244
vn -0.668596 -0.743513 -0.012931
vn -0.668896 -0.743246 -0.012778
vn -0.668657 -0.743459 -0.012900
vn -0.668999 -0.743155 -0.012725
vn -0.357513 0.933767 0.016239
vn -0.356758 0.934057 0.016156
vn -0.342872 0.939268 0.014629
vn -0.341707 0.939695 0.014501
vn -0.674077 -0.738509 -0.014984
vn -0.673108 -0.739401 -0.014590
vn -0.669988 -0.742253 -0.013325
vn -0.668998 -0.743152 -0.012924
vn 0.951870 0.281489 -0.121277
vn 0.950911 0.285556 -0.119270
vn 0.949377 0.291883 -0.116136
vn 0.947971 0.297496 -0.113344
vn 0.182760 0.974467 -0.130434
vn 0.182721 0.974476 -0.130418
vn 0.182526 0.974524 -0.130338
vn 0.182403 0.974553 -0.130288
vn 0.569124 0.238459 0.786915
vn 0.567077 0.238869 0.788267
vn 0.567750 0.238734 0.787824
vn 0.566870 0.238910 0.788404
vn 0.412958 0.908506 0.063892
vn 0.412958 0.908507 0.063892
vn 0.412958 0.908507 0.063892
vn 0.672062 0.740407 0.011426
vn 0.671011 0.741354 0.011760
vn 0.665528 0.746251 0.013495
vn 0.664443 0.747210 0.013837
vn 0.981610 -0.190869 -0.003319
vn 0.981610 -0.190869 -0.003319
vn 0.981610 -0.190869 -0.003319
vn 0.981610 -0.190869 -0.003319
vn 0.000000 0.992412 -0.122954
vn 0.000000 0.992412 -0.122954
vn 0.000000 0.992412 -0.122954
vn 0.000000 0.992412 -0.122954
vn -0.016221 -0.035687 0.999231
vn -0.016221 -0.035687 0.999231
vn -0.016221 -0.035687 0.999231
vn -0.366896 0.930126 0.015927
vn -0.343666 0.938898 0.019104
vn -0.365028 0.930856 0.016184
vn -0.341679 0.939617 0.019374
vn -0.517004 0.855537 -0.027614
vn -0.511001 0.859046 -0.030309
vn -0.501170 0.864653 -0.034690
vn 0.664444 0.747179 0.015406
vn 0.665746 0.746029 0.014949
vn 0.670938 0.741398 0.013120
vn 0.671607 0.740795 0.012883
vn 0.000000 -0.773629 -0.633639
vn 0.000000 -0.773629 -0.633639
vn 0.000000 -0.773629 -0.633639
vn 0.501170 0.864653 -0.034690
vn 0.498438 0.866181 -0.035901
vn 0.511001 0.859046 -0.030309
vn 0.634688 0.771158 -0.049863
vn 0.634688 0.771158 -0.049863
vn 0.634688 0.771158 -0.049863
vn 0.694616 -0.714570 -0.083052
vn 0.704099 -0.704751 -0.087011
vn 0.697089 -0.712038 -0.084080
vn 0.704783 -0.704031 -0.087298
vn 0.206821 0.116592 -0.971407
vn 0.207572 0.116529 -0.971254
vn 0.210113 0.116317 -0.970733
vn 0.215058 0.115900 -0.969700
vn -0.668996 -0.743134 -0.014021
vn -0.668996 -0.743134 -0.014021
vn -0.668996 -0.743134 -0.014021
vn 0.660146 -0.735606 0.151956
vn 0.660146 -0.735606 0.151956
vn 0.660146 -0.735606 0.151956
vn -0.790591 -0.153726 -0.592734
vn -0.790591 -0.153726 -0.592734
vn -0.790591 -0.153726 -0.592734
vn -0.826747 -0.467580 -0.312824
vn -0.826747 -0.467580 -0.312824
vn -0.826747 -0.467580 -0.312824
vn -0.852431 0.411496 -0.322541
vn -0.852168 0.414709 -0.319102
vn -0.852106 0.415431 -0.318327
vn -0.851989 0.416769 -0.316889
vn 0.000000 -0.216930 -0.976187
vn 0.000000 -0.216930 -0.976187
vn 0.000000 -0.216930 -0.976187
vn -0.377339 0.402093 0.834228
vn -0.376654 0.399485 0.835789
vn -0.377165 0.401430 0.834626
vn -0.376104 0.397400 0.837030
vn -0.866761 0.484367 0.118807
vn -0.866761 0.484367 0.118807
vn -0.866761 0.484367 0.118807
vn 0.123930 -0.991439 -0.041117
vn 0.134938 -0.990039 -0.040171
vn 0.208856 -0.977367 -0.033647
vn 0.213579 -0.976361 -0.033220
vn -0.982166 -0.187980 -0.003814
vn -0.982138 -0.188124 -0.003800
vn -0.981653 -0.190645 -0.003556
vn -0.981609 -0.190868 -0.003535
vn 0.000000 0.000000 1.000000
vn 0.000000 0.000000 1.000000
vn 0.000000 0.000000 1.000000
vn -0.698215 0.698215 0.158086
vn -0.698215 0.698215 0.158086
vn -0.698215 0.698215 0.158086
vn 0.668999 -0.743155 -0.012725
vn 0.668896 -0.743246 -0.012778
vn 0.668657 -0.743459 -0.012900
vn 0.668596 -0.743513 -0.012931
vn 0.341707 0.939695 0.014501
vn 0.356758 0.934057 0.016156
vn 0.342872 0.939268 0.014629
vn 0.357513 0.933767 0.016239
vn 0.668998 -0.743152 -0.012924
vn 0.673108 -0.739401 -0.014590
vn 0.669988 -0.742253 -0.013325
vn 0.674077 -0.738509 -0.014984
vn -0.947971 0.297496 -0.113344
vn -0.950911 0.285556 -0.119270
vn -0.949377 0.291883 -0.116136
vn -0.951870 0.281489 -0.121277
vn -0.182403 0.974553 -0.130288
vn -0.182721 0.974476 -0.130418
vn -0.182526 0.974524 -0.130338
vn -0.182760 0.974467 -0.130434
vn -0.569124 0.238459 0.786915
vn -0.567749 0.238735 0.787824
vn -0.567077 0.238869 0.788267
vn -0.566869 0.238910 0.788404
vn -0.412958 0.908507 0.063892
vn -0.412958 0.908507 0.063892
vn -0.412957 0.908507 0.063892
vn -0.664443 0.747210 0.013837
vn -0.671011 0.741354 0.011760
vn -0.665528 0.746251 0.013495
vn -0.672062 0.740407 0.011426
vn -0.981610 -0.190869 -0.003319
vn -0.981610 -0.190869 -0.003319
vn -0.981610 -0.190869 -0.003319
vn -0.981610 -0.190869 -0.003319
vn 0.948721 -0.316060 -0.005963
vn 0.948721 -0.316060 -0.005963
vn 0.948721 -0.316060 -0.005963
vn 0.016222 -0.035687 0.999231
vn 0.016222 -0.035687 0.999231
vn 0.016222 -0.035687 0.999231
vn 0.341679 0.939617 0.019374
vn 0.343666 0.938898 0.019104
vn 0.365028 0.930856 0.016184
vn 0.366896 0.930126 0.015927
vn 0.188396 -0.861240 0.471988
vn 0.188396 -0.861240 0.471988
vn 0.188396 -0.861240 0.471988
vn -0.671607 0.740795 0.012883
vn -0.665746 0.746029 0.014949
vn -0.670938 0.741398 0.013120
vn -0.664444 0.747179 0.015406
vn 0.000000 -0.810679 0.585491
vn 0.000000 -0.810679 0.585491
vn 0.000000 -0.810679 0.585491
vn 0.000000 -0.810679 0.585491
vn 0.000000 -0.999302 -0.037357
vn 0.000000 -0.999302 -0.037357
vn 0.000000 -0.999302 -0.037357
vn 0.000000 -0.999302 -0.037357
vn 0.000000 0.000000 1.000000
vn 0.000000 0.000000 1.000000
vn 0.000000 0.000000 1.000000
vn 0.000000 0.000000 1.000000
vn 0.000000 -0.991391 -0.130938
vn 0.000000 -0.991391 -0.130938
vn 0.000000 -0.991391 -0.130938
vn 0.000000 -0.991391 -0.130938
vn -0.215058 0.115900 -0.969700
vn -0.207572 0.116529 -0.971254
vn -0.210113 0.116317 -0.970733
vn -0.206821 0.116592 -0.971407
vn 0.000000 0.971211 0.238221
vn 0.000000 0.971211 0.238221
vn 0.000000 0.971211 0.238221
vn 0.000000 0.971211 0.238222
vn 0.000000 0.859536 -0.511075
vn 0.000000 0.859536 -0.511075
vn 0.000000 0.859536 -0.511075
vn 0.000000 0.859536 -0.511075
vn 0.000000 -0.846890 -0.531768
vn 0.000000 -0.846890 -0.531768
vn 0.000000 -0.846890 -0.531768
vn 0.000000 -0.846890 -0.531768
vn 0.000000 -0.773629 -0.633639
vn 0.000000 -0.773629 -0.633639
vn 0.000000 -0.773629 -0.633639
vn 0.668996 -0.743134 -0.014021
vn 0.668996 -0.743134 -0.014021
vn 0.668996 -0.743134 -0.014021
vn 0.000000 0.975313 0.220826
vn 0.000000 0.975313 0.220826
vn 0.000000 0.975313 0.220826
vn 0.000000 0.975313 0.220826
vn 0.000000 0.027766 -0.999614
vn 0.000000 0.027766 -0.999615
vn 0.000000 0.027766 -0.999615
vn -0.704783 -0.704031 -0.087298
vn -0.704099 -0.704751 -0.087011
vn -0.697089 -0.712038 -0.084080
vn -0.694616 -0.714570 -0.083052
vn -0.634688 0.771158 -0.049863
vn -0.634688 0.771158 -0.049863
vn -0.634688 0.771158 -0.049863
vn -0.188396 -0.861240 0.471988
vn -0.188396 -0.861240 0.471988
vn -0.188396 -0.861240 0.471988
vn -0.948721 -0.316060 -0.005963
vn -0.948721 -0.316060 -0.005963
vn -0.948721 -0.316060 -0.005963
vn 0.000000 0.027766 -0.999615
vn 0.000000 0.027766 -0.999614
vn 0.000000 0.027766 -0.999615
vn -0.867328 0.484683 0.113244
vn -0.867328 0.484683 0.113244
vn -0.867328 0.484683 0.113244
vn 0.000000 0.973774 0.227517
vn 0.000000 0.973774 0.227517
vn 0.000000 0.973774 0.227517
vn 0.000000 0.973774 0.227517
vn 0.698215 0.698215 0.158086
vn 0.698215 0.698215 0.158086
vn 0.698215 0.698215 0.158086
vn 0.872286 0.488249 -0.027018
vn 0.872286 0.488249 -0.027018
vn 0.872286 0.488249 -0.027018
vn 0.915080 0.402253 0.028667
vn 0.915080 0.402253 0.028667
vn 0.915080 0.402253 0.028667
vn -0.872286 0.488249 -0.027018
vn -0.872286 0.488249 -0.027018
vn -0.872286 0.488249 -0.027018
vn -0.915080 0.402253 0.028667
vn -0.915080 0.402253 0.028667
vn -0.915080 0.402253 0.028667
vn 0.826549 0.558697 0.068379
vn 0.846716 0.524535 0.089076
vn 0.828813 0.555050 0.070627
vn 0.868703 0.482107 0.113704
vn -0.868703 0.482107 0.113704
vn -0.846717 0.524535 0.089076
vn -0.828813 0.555050 0.070627
vn -0.826549 0.558697 0.068379
vn 0.517004 0.855537 -0.027614
vn -0.498438 0.866181 -0.035901
s 1
g polySurface2
usemtl polySurface2SG
f 1/2/1 2/3/2 9/1/3
f 9/1/3 2/3/2 10/4/4
s 2
f 3/6/5 4/7/6 1/5/7
f 1/5/7 4/7/6 2/8/8
s 3
f 7/9/9 9/10/10 8/12/11
f 8/12/11 9/10/10 10/11/12
s 4
f 5/13/13 7/14/14 6/16/15
f 6/16/15 7/14/14 8/15/16
s 5
f 3/17/17 5/18/18 4/20/19
f 4/20/19 5/18/18 6/19/20
s off
f 1/21/21 9/22/22 7/23/23
f 1/24/24 7/25/25 5/26/26
f 3/27/27 1/28/28 5/29/29
usemtl lambert2SG
f 12/258/30 36/259/31 13/260/32
f 11/146/33 13/147/34 37/148/35
f 36//36 40//37 43//38
s 6
f 44/54/39 43/55/40 28/57/41
f 28/57/41 43/55/40 40/56/42
s off
f 36/212/43 43/213/44 37/214/45
s 7
f 17/153/46 16/154/47 15/152/48
f 15/152/48 16/154/47 14/155/49
s off
f 23/104/50 75/105/51 20/106/52
s 8
f 24/262/53 27/263/54 38/261/55
f 38/261/55 27/263/54 35/264/56
s 9
f 34/201/57 15/202/58 33/200/59
f 33/200/59 15/202/58 14/203/60
s off
f 27/128/61 26/129/62 35/130/63
f 23/98/64 73/99/65 75/100/66
s 10
f 13/224/67 33/225/68 45/227/69
f 45/227/69 33/225/68 32/226/70
s 11
f 16/185/71 17/186/72 32/184/73
f 32/184/73 17/186/72 31/187/74
s 12
f 14/228/75 16/229/76 33/225/77
f 33/225/77 16/229/76 32/226/78
s 13
f 29/67/79 30/68/80 41/66/81
f 41/66/81 30/68/80 42/69/82
s 14
f 20/39/83 29/40/84 44/38/85
f 44/38/85 29/40/84 41/41/86
s 15
f 30/83/87 29/84/88 18/82/89
f 18/82/89 29/84/88 20/85/90
s off
f 24/134/91 46/135/92 18/136/93
s 16
f 17/177/94 15/178/95 31/176/96
f 31/176/96 15/178/95 34/179/97
s 17
f 33/192/98 13/193/99 34/195/100
f 34/195/100 13/193/99 11/194/101
s 18
f 25/46/102 56/47/103 44/49/104
f 44/49/104 56/47/103 20/48/105
s off
f 45/236/106 46/237/107 24/238/108
s 19
f 45/168/109 32/169/110 46/171/111
f 46/171/111 32/169/110 31/170/112
s 20
f 61/137/113 19/138/114 54/139/115
s 21
f 31/161/116 34/162/117 46/160/118
f 46/160/118 34/162/117 11/163/119
s off
f 37/218/120 13/219/121 36/220/122
s 22
f 18/136/123 46/135/124 37/141/125
s off
f 11/142/126 37/141/127 46/135/128
s 23
f 42/74/129 30/75/130 43/77/131
f 43/77/131 30/75/130 18/76/132
s 24
f 44/30/133 41/31/134 43/33/135
f 43/33/135 41/31/134 42/32/136
s off
f 12/265/137 13/266/138 45/267/139
f 48/268/140 49/269/141 72/270/142
f 47/149/143 19/150/144 49/151/145
f 72//146 61//147 55//148
s 25
f 55/59/149 61/60/150 64/58/151
f 64/58/151 61/60/150 25/61/152
s off
f 72/215/153 19/216/154 61/217/155
s 26
f 50/156/156 52/157/157 51/159/158
f 51/159/158 52/157/157 53/158/159
s off
f 59/107/160 56/108/161 76/109/162
s 27
f 71/271/163 63/272/164 39/274/165
f 39/274/165 63/272/164 60/273/166
s 28
f 50/205/167 51/206/168 69/204/169
f 69/204/169 51/206/168 70/207/170
s off
f 63/131/171 71/132/172 62/133/173
f 62/114/174 74/115/175 63/116/176
s 29
f 68/231/177 69/232/178 22/230/179
f 22/230/179 69/232/178 49/233/180
s 30
f 67/188/181 53/189/182 68/191/183
f 68/191/183 53/189/182 52/190/184
s 31
f 68/231/185 52/234/186 69/232/187
f 69/232/187 52/234/186 50/235/188
s 32
f 57/70/189 66/71/190 21/73/191
f 21/73/191 66/71/190 65/72/192
s 33
f 21/43/193 65/44/194 25/42/195
f 25/42/195 65/44/194 56/45/196
s 34
f 66/86/197 54/87/198 65/89/199
f 65/89/199 54/87/198 56/88/200
s off
f 60/140/201 54/139/202 58/144/203
s 35
f 70/180/204 51/181/205 67/183/206
f 67/183/206 51/181/205 53/182/207
s 36
f 47/197/208 49/198/209 70/196/210
f 70/196/210 49/198/209 69/199/211
s off
f 22/239/212 48/240/213 60/241/214
f 22/242/215 60/243/216 58/244/217
s 37
f 67/173/218 68/174/219 58/172/220
f 58/172/220 68/174/219 22/175/221
s off
f 39/245/222 60/246/223 48/247/224
s 38
f 47/164/225 70/165/226 58/167/227
f 58/167/227 70/165/226 67/166/228
s 39
f 48/248/229 12/249/230 39/251/231
f 39/251/231 12/249/230 38/250/232
s 40
f 71/276/233 39/277/234 35/275/235
f 35/275/235 39/277/234 38/278/236
s 41
f 71/132/237 35/130/238 62/133/239
f 62/133/239 35/130/238 26/129/240
s 42
f 12/279/241 48/280/242 36/282/243
f 36/282/243 48/280/242 72/281/244
s 43
f 57/35/245 21/36/246 61/34/247
f 61/34/247 21/36/246 25/37/248
s 44
f 23/96/249 20/91/250 59/97/251
f 59/97/251 20/91/250 56/92/252
s 45
f 28/50/253 64/51/254 44/53/255
f 44/53/255 64/51/254 25/52/256
s 46
f 36/208/257 72/209/258 40/211/259
f 40/211/259 72/209/258 55/210/260
s off
f 19/221/261 72/222/262 49/223/263
f 48/283/264 22/284/265 49/285/266
s 47
f 74/124/267 62/125/268 73/127/269
f 73/127/269 62/125/268 26/126/270
s off
f 40/62/271 55/63/272 28/64/273
s 48
f 54/79/274 66/80/275 61/78/276
f 61/78/276 66/80/275 57/81/277
s off
f 47/145/278 58/144/279 19/138/280
f 12/252/281 24/253/282 38/254/283
f 12/255/284 45/256/285 24/257/286
f 64/65/287 28/64/288 55/63/289
f 59/101/290 76/102/291 74/103/292
s 49
f 73/94/293 23/90/294 74/95/295
f 74/95/295 23/90/294 59/93/296
s off
f 26/117/297 27/118/298 73/119/299
f 24/110/300 18/111/301 75/105/302
f 20/106/303 75/105/304 18/111/305
f 60/112/306 76/109/307 54/113/308
f 56/108/309 54/113/310 76/109/311
s 50
f 27/118/312 24/120/313 73/119/314
f 73/119/314 24/120/313 75/121/315
s 51
f 76/122/316 60/123/317 74/115/318
f 74/115/318 60/123/317 63/116/319
s 22
f 18/136/123 37/141/125 43/143/320
s 20
f 54/139/115 19/138/114 58/144/321
