# This file uses centimeters as units for non-parametric coordinates.

mtllib Goteki45.mtl
g default
v -0.390000 0.120000 -3.590000
v -0.260000 -0.970000 3.790000
v -0.390000 -0.290000 4.380000
v -1.400000 -0.970000 3.790000
v -1.050000 0.120000 -3.590000
v -1.050000 -0.290000 4.380000
v 0.260000 -0.730000 -0.700000
v -1.190000 -0.150000 -3.610000
v -1.400000 -0.730000 -0.700000
v -1.050000 0.160000 -4.380000
v 0.260000 -0.970000 3.790000
v 0.390000 -0.290000 4.380000
v 1.400000 -0.970000 3.790000
v 1.050000 0.120000 -3.590000
v 1.050000 -0.290000 4.380000
v 0.390000 0.120000 -3.590000
v -0.380000 0.050000 -2.250000
v 1.190000 -0.150000 -3.610000
v 1.400000 -0.730000 -0.700000
v 1.050000 0.160000 -4.380000
v 0.380000 0.050000 -2.250000
v 1.050000 0.020000 -1.610000
v 0.380000 0.020000 -1.610000
v -0.366371 0.010602 -1.603930
v -1.050000 0.020000 -1.610000
v -0.260000 -0.730000 -0.700000
v -0.170000 -0.150000 -3.610000
v 0.170000 -0.150000 -3.610000
v -0.390000 0.160000 -4.380000
v 0.390000 0.160000 -4.380000
v 1.400000 -0.860000 1.580000
v 1.050000 -0.130000 1.380000
v 0.390000 -0.130000 1.380000
v 0.260000 -0.860000 1.580000
v -0.260000 -0.860000 1.580000
v -0.390000 -0.130000 1.380000
v -1.050000 -0.130000 1.380000
v -1.400000 -0.860000 1.580000
v 0.160000 1.000000 -2.680000
v -0.160000 1.000000 -2.680000
v 0.170000 0.890000 -2.010000
v 0.570000 0.180000 -2.140000
v -0.156371 0.880602 -2.003930
v -0.570000 0.180000 -2.140000
v 0.150000 0.230000 -1.580000
v -0.136371 0.220602 -1.573930
v -0.466371 0.530602 -2.063930
v 0.480000 0.540000 -2.070000
v 0.470000 0.640000 -2.740000
v -0.470000 0.640000 -2.740000
v 0.110000 0.500000 -2.770000
v -0.110000 0.500000 -2.770000
v 1.190000 -0.130000 -4.110000
v 0.170000 -0.130000 -4.110000
v -0.170000 -0.130000 -4.110000
v -1.190000 -0.130000 -4.110000
v 0.000000 0.120000 -3.560000
v 0.000000 0.180000 -3.740000
v -0.180000 0.180000 -3.410000
v -0.080000 0.220000 -3.740000
v -0.110000 0.420000 -2.830000
v -0.050000 0.300000 -3.740000
v 0.110000 0.420000 -2.830000
v 0.050000 0.300000 -3.740000
v 0.180000 0.180000 -3.410000
v 0.080000 0.220000 -3.740000
v -1.690000 -1.000000 -0.950000
v -1.810000 -0.860000 -2.950000
v 1.690000 -1.000000 -0.950000
v 1.810000 -0.860000 -2.950000
vt 0.750000 0.500000
vt 0.750000 0.257813
vt 0.875000 0.257813
vt 0.871094 0.500000
vt 0.875000 0.257813
vt 0.750000 0.257813
vt 0.750000 0.500000
vt 0.871094 0.500000
vt 0.855469 0.257813
vt 0.838169 0.500000
vt 0.806362 0.500000
vt 0.789063 0.257813
vt 0.773438 0.500000
vt 0.773438 0.257813
vt 0.873047 0.257813
vt 0.869141 0.500000
vt 0.869141 0.500000
vt 0.873047 0.257813
vt 0.773438 0.257813
vt 0.773438 0.500000
vt 0.488281 0.781250
vt 0.253906 0.781250
vt 0.250000 1.000000
vt 0.488281 1.000000
vt 0.488281 0.781250
vt 0.253906 0.781250
vt 0.250000 1.000000
vt 0.488281 1.000000
vt 0.487515 0.781250
vt 0.487515 0.999234
vt 0.317172 0.999234
vt 0.317172 0.781250
vt 0.487515 0.781250
vt 0.487515 0.999234
vt 0.317172 0.999234
vt 0.317172 0.781250
vt 0.500000 0.000000
vt 0.500000 0.218750
vt 0.578125 0.000000
vt 0.500000 0.000000
vt 0.578125 0.000000
vt 0.500000 0.218750
vt 0.738281 0.218750
vt 0.738281 0.000000
vt 0.738281 0.218750
vt 0.738281 0.000000
vt 0.500000 0.218750
vt 0.578125 0.000000
vt 0.578125 0.000000
vt 0.500000 0.218750
vt 0.236328 0.500000
vt 0.011719 0.500000
vt 0.011719 0.632813
vt 0.236328 0.781250
vt 0.011719 0.500000
vt 0.011719 0.773438
vt 0.234375 0.632813
vt 0.236328 0.500000
vt 0.011719 1.000000
vt 0.240234 1.000000
vt 0.011719 1.000000
vt 0.240234 1.000000
vt 0.750000 0.000000
vt 0.750000 0.250000
vt 1.000000 0.250000
vt 1.000000 0.000000
vt 1.000000 0.000000
vt 0.750000 0.000000
vt 0.750000 0.250000
vt 1.000000 0.250000
vt 0.496094 0.500000
vt 0.496094 0.750000
vt 0.250000 0.750000
vt 0.250000 0.500000
vt 0.496094 0.500000
vt 0.250000 0.500000
vt 0.250000 0.750000
vt 0.496094 0.750000
vt 0.488281 0.750000
vt 0.250000 0.750000
vt 0.250000 0.929688
vt 0.488281 0.929688
vt 0.488281 0.750000
vt 0.250000 0.750000
vt 0.250000 0.929688
vt 0.488281 0.929688
vt 0.317172 0.781250
vt 0.487515 0.781250
vt 0.488281 1.000000
vt 0.317172 0.999234
vt 0.317172 0.781250
vt 0.487515 0.781250
vt 0.488281 1.000000
vt 0.317172 0.999234
vt 1.000000 0.000000
vt 0.750000 0.000000
vt 0.750000 0.250000
vt 1.000000 0.250000
vt 0.750000 0.250000
vt 1.000000 0.250000
vt 1.000000 0.000000
vt 0.750000 0.000000
vt 0.250000 0.750000
vt 0.496094 0.750000
vt 0.496094 0.500000
vt 0.250000 0.500000
vt 0.496094 0.500000
vt 0.496094 0.750000
vt 0.250000 0.750000
vt 0.250000 0.500000
vt 0.358394 0.122888
vt 0.461918 0.122888
vt 0.461918 0.236487
vt 0.358394 0.236487
vt 0.500417 0.795142
vt 0.500000 0.734375
vt 0.623047 0.726563
vt 0.523823 0.812242
vt 0.545115 0.753049
vt 0.500768 0.734633
vt 0.619141 0.523438
vt 0.500000 0.515625
vt 0.616565 0.734633
vt 0.572217 0.753049
vt 0.616564 0.800035
vt 0.593509 0.812242
vt 0.667810 0.738123
vt 0.675940 0.738123
vt 0.675940 0.746252
vt 0.667810 0.738123
vt 0.675940 0.738123
vt 0.675940 0.746252
vt 0.667810 0.738123
vt 0.675940 0.738123
vt 0.675940 0.746252
vt 0.343597 0.246247
vt 0.343597 0.113128
vt 0.476716 0.113128
vt 0.476716 0.246247
vt 0.343597 0.246247
vt 0.343597 0.113128
vt 0.476716 0.113128
vt 0.476716 0.246247
vt 0.476716 0.246247
vt 0.343597 0.246247
vt 0.343597 0.113128
vt 0.476716 0.113128
vt 0.343597 0.246247
vt 0.343597 0.113128
vt 0.476716 0.113128
vt 0.476716 0.246247
vt 0.476716 0.246247
vt 0.343597 0.246247
vt 0.343597 0.113128
vt 0.476716 0.113128
vt 0.217639 0.108264
vt 0.360486 0.108264
vt 0.360486 0.251111
vt 0.217639 0.108264
vt 0.360486 0.108264
vt 0.360486 0.251111
vt 0.217639 0.251111
vt 0.217639 0.108264
vt 0.360486 0.108264
vt 0.360486 0.251111
vt 0.231892 0.126423
vt 0.338421 0.126423
vt 0.338421 0.232952
vt 0.231892 0.126423
vt 0.338421 0.126423
vt 0.338421 0.232952
vt 1.000000 0.250000
vt 0.875000 0.250000
vt 0.875000 0.500000
vt 1.000000 0.500000
vt 1.000000 0.500000
vt 1.000000 0.250000
vt 0.875000 0.250000
vt 0.875000 0.500000
vt 0.309323 0.271819
vt 0.216234 0.271819
vt 0.216234 0.190436
vt 0.309323 0.190436
vt 0.097422 0.086923
vt 0.216234 0.071931
vt 0.216234 0.153314
vt 0.097422 0.159739
vt 0.097422 0.184011
vt 0.097422 0.256828
vt 0.309323 0.071931
vt 0.399555 0.071931
vt 0.399555 0.153314
vt 0.309323 0.153314
vt 0.399555 0.190436
vt 0.399555 0.271819
vt 0.077007 0.184011
vt 0.077007 0.256828
vt 0.077007 0.159739
vt 0.077007 0.086923
vt 0.722656 0.504624
vt 0.722656 0.640625
vt 0.653062 0.640625
vt 0.653062 0.504624
vt 0.875000 0.640625
vt 0.875000 0.500000
vt 0.722656 0.500000
vt 0.722656 0.640625
vt 0.722656 0.640625
vt 0.875000 0.640625
vt 0.722656 0.750000
vt 0.722656 0.750000
vt 0.722656 0.500000
vt 0.875000 0.500000
vt 0.722656 0.500000
vt 0.871094 0.500000
vt 0.722656 0.750000
vt 0.722656 0.500000
vt 0.722656 0.750000
vt 0.871094 0.500000
vt 0.657650 0.945313
vt 0.628906 1.000000
vt 0.746094 1.000000
vt 0.709538 0.945313
vt 0.652344 0.640625
vt 0.722656 0.640625
vt 0.722656 0.914063
vt 0.652344 0.914063
vt 0.623791 0.590083
vt 0.710938 0.845758
vt 0.659987 0.845758
vt 0.626209 0.590083
vt 0.724779 0.845758
vt 0.659987 0.845758
vt 0.748513 0.590083
vt 0.748513 0.590083
vn 0.984051 0.177665 0.008843
vn 0.983943 0.178254 0.009054
vn 0.983707 0.179529 0.009511
vn 0.983668 0.179737 0.009586
vn 0.000000 0.073872 -0.997268
vn 0.000000 0.073872 -0.997268
vn 0.000000 0.073872 -0.997268
vn 0.000000 0.073872 -0.997268
vn 0.000000 0.998721 0.050568
vn 0.000000 0.998721 0.050568
vn 0.000000 0.998721 0.050568
vn 0.000000 0.998721 0.050568
vn 0.000000 -0.998378 -0.056925
vn 0.000000 -0.998378 -0.056925
vn 0.000000 -0.998378 -0.056925
vn 0.000000 -0.998379 -0.056925
vn 0.000000 0.998581 0.053258
vn 0.000000 0.998581 0.053258
vn 0.000000 0.998581 0.053258
vn 0.000000 0.998581 0.053258
vn 0.000000 0.773528 0.633762
vn -0.002017 0.772841 0.634596
vn -0.003630 0.772289 0.635261
vn -0.004551 0.771972 0.635640
vn 0.000000 -0.980710 -0.195468
vn 0.000000 -0.980710 -0.195468
vn 0.000000 -0.980710 -0.195468
vn 0.000000 -0.980710 -0.195468
vn 0.000000 -0.980710 -0.195468
vn 0.000000 -0.980710 -0.195468
vn 0.000000 -0.980710 -0.195468
vn 0.000000 -0.980710 -0.195468
vn 0.000000 0.998903 0.046824
vn 0.000000 0.998903 0.046824
vn 0.000000 0.998903 0.046824
vn -0.888160 0.459167 0.018367
vn -0.889877 0.455740 0.020477
vn -0.891233 0.453004 0.022157
vn -0.891811 0.451830 0.022877
vn 0.000000 -0.655353 0.755322
vn 0.000000 -0.655353 0.755322
vn 0.000000 -0.655353 0.755323
vn 0.000000 -0.655353 0.755323
vn 0.781946 0.622549 0.031521
vn 0.778983 0.626401 0.028416
vn 0.780829 0.624007 0.030348
vn 0.775902 0.630349 0.025214
vn -0.775902 0.630349 0.025214
vn -0.778983 0.626401 0.028416
vn -0.780829 0.624007 0.030348
vn -0.781946 0.622549 0.031521
vn 0.000000 0.998721 0.050568
vn 0.000000 0.998721 0.050568
vn 0.000000 0.998721 0.050568
vn 0.000000 0.998721 0.050568
vn -0.888216 0.458840 0.023174
vn -0.888216 0.458840 0.023174
vn -0.888216 0.458840 0.023174
vn -0.894146 0.447100 0.024587
vn -0.894146 0.447100 0.024587
vn -0.894146 0.447100 0.024587
vn 0.000000 -0.980710 -0.195468
vn 0.000000 -0.980710 -0.195468
vn 0.000000 -0.980710 -0.195468
vn 0.000000 -0.980710 -0.195468
vn -0.984051 0.177665 0.008843
vn -0.983707 0.179529 0.009511
vn -0.983943 0.178254 0.009054
vn -0.983668 0.179737 0.009586
vn 0.891811 0.451830 0.022877
vn 0.889877 0.455740 0.020477
vn 0.891233 0.453004 0.022157
vn 0.888160 0.459167 0.018367
vn 0.013183 0.998076 0.060586
vn 0.013183 0.998076 0.060586
vn 0.013183 0.998076 0.060586
vn -0.895307 0.444890 0.022319
vn -0.895730 0.444022 0.022641
vn -0.897928 0.439469 0.024324
vn -0.898752 0.437747 0.024959
vn 0.000000 0.998638 0.052168
vn -0.002979 0.998710 0.050682
vn -0.001335 0.998672 0.051502
vn -0.003463 0.998721 0.050440
vn -0.899166 0.437068 0.021754
vn -0.897290 0.440825 0.023337
vn -0.898529 0.438349 0.022294
vn -0.897052 0.441297 0.023536
vn 0.000000 -0.998764 -0.049712
vn 0.000000 -0.998764 -0.049712
vn 0.000000 -0.998764 -0.049712
vn 0.000000 -0.998764 -0.049712
vn 0.000000 -0.655353 0.755322
vn 0.000000 -0.655353 0.755323
vn 0.000000 -0.655353 0.755322
vn 0.000000 -0.655353 0.755323
vn 0.000000 0.998581 0.053258
vn 0.000000 0.998581 0.053258
vn 0.000000 0.998581 0.053258
vn 0.000000 0.998581 0.053258
vn 0.003463 0.998721 0.050440
vn 0.002979 0.998710 0.050682
vn 0.001335 0.998672 0.051502
vn 0.000000 0.998638 0.052168
vn 0.000000 0.998892 0.047067
vn 0.011509 0.998698 0.049695
vn 0.001965 0.998869 0.047516
vn 0.013284 0.998656 0.050100
vn 0.897052 0.441297 0.023536
vn 0.897290 0.440825 0.023337
vn 0.898528 0.438349 0.022294
vn 0.899166 0.437068 0.021754
vn 0.895307 0.444890 0.022319
vn 0.897929 0.439469 0.024324
vn 0.895730 0.444022 0.022641
vn 0.898752 0.437747 0.024959
vn 0.894146 0.447100 0.024587
vn 0.894146 0.447100 0.024587
vn 0.894146 0.447100 0.024587
vn 0.888216 0.458840 0.023174
vn 0.888217 0.458840 0.023174
vn 0.888217 0.458840 0.023174
vn 0.000000 0.998744 0.050104
vn 0.000000 0.998744 0.050104
vn 0.000000 0.998744 0.050104
vn 0.000000 0.998744 0.050104
vn -0.985012 0.172073 0.011927
vn -0.984900 0.172727 0.011731
vn -0.984205 0.176717 0.010537
vn -0.983976 0.178009 0.010150
vn 0.000000 -0.998379 -0.056925
vn 0.000000 -0.998378 -0.056925
vn 0.000000 -0.998378 -0.056925
vn 0.000000 -0.998378 -0.056925
vn 0.983976 0.178009 0.010150
vn 0.986603 0.162465 0.014798
vn 0.984632 0.174277 0.011267
vn 0.986913 0.160518 0.015379
vn 0.000000 -0.998764 -0.049712
vn 0.000000 -0.998764 -0.049712
vn 0.000000 -0.998764 -0.049712
vn 0.000000 -0.998764 -0.049712
vn 0.762105 0.640623 0.093802
vn 0.756682 0.647675 0.089159
vn 0.758683 0.645091 0.090866
vn 0.753089 0.652259 0.086112
vn 0.000000 0.164399 -0.986394
vn 0.000000 0.164399 -0.986394
vn 0.000000 0.164399 -0.986394
vn 0.000000 0.164399 -0.986394
vn -0.838812 0.543318 0.034642
vn -0.838812 0.543318 0.034642
vn -0.838812 0.543318 0.034642
vn 0.000000 0.986789 0.162010
vn -0.007336 0.986179 0.165523
vn -0.018310 0.985143 0.170758
vn -0.025112 0.984427 0.173991
vn -0.960678 0.273241 0.049372
vn -0.960678 0.273241 0.049372
vn -0.960678 0.273241 0.049372
vn 0.970885 0.238614 0.021123
vn 0.970885 0.238614 0.021123
vn 0.970885 0.238614 0.021123
vn -0.606131 0.421199 0.674683
vn -0.595669 0.434118 0.675811
vn -0.568084 0.466697 0.677845
vn -0.541548 0.496179 0.678626
vn 0.009952 -0.152088 0.988317
vn 0.014070 -0.141757 0.989802
vn 0.011059 -0.149312 0.988728
vn 0.024813 -0.114694 0.993091
vn -0.000156 0.545877 0.837865
vn -0.000151 0.545879 0.837864
vn -0.000141 0.545882 0.837862
vn -0.000137 0.545883 0.837861
vn 0.606130 0.421199 0.674683
vn 0.568085 0.466697 0.677845
vn 0.595668 0.434118 0.675811
vn 0.541549 0.496178 0.678625
vn -0.753310 0.646938 0.118297
vn -0.758818 0.641679 0.111551
vn -0.756793 0.643629 0.114045
vn -0.762167 0.638411 0.107396
vn 0.914007 0.155653 0.374652
vn 0.914007 0.155653 0.374652
vn 0.914007 0.155653 0.374652
vn -0.899498 0.179433 0.398380
vn -0.899498 0.179433 0.398380
vn -0.899498 0.179433 0.398380
vn 0.838812 0.543318 0.034642
vn 0.838812 0.543318 0.034642
vn 0.838812 0.543318 0.034642
vn 0.666516 -0.533836 -0.520361
vn 0.549491 -0.581815 -0.599626
vn 0.366962 -0.626819 -0.687340
vn 0.306182 -0.635424 -0.708865
vn 0.000000 0.907311 -0.420461
vn 0.000000 0.907311 -0.420461
vn 0.000000 0.907311 -0.420461
vn 0.000000 0.907311 -0.420461
vn 0.000000 0.209529 -0.977802
vn 0.000000 0.209529 -0.977802
vn 0.000000 0.209529 -0.977803
vn 0.000000 0.209529 -0.977802
vn -0.666516 -0.533836 -0.520361
vn -0.366962 -0.626819 -0.687340
vn -0.549491 -0.581815 -0.599626
vn -0.306182 -0.635424 -0.708865
vn 0.579230 -0.814270 -0.038169
vn 0.579230 -0.814270 -0.038169
vn 0.579230 -0.814270 -0.038169
vn -0.578968 -0.814490 -0.037455
vn -0.578968 -0.814490 -0.037455
vn -0.578968 -0.814490 -0.037455
vn 0.000000 -0.681419 -0.731894
vn 0.000000 -0.681418 -0.731894
vn 0.000000 -0.681419 -0.731894
vn 0.000000 -0.681418 -0.731894
vn 0.000000 -0.681419 -0.731894
vn 0.000000 -0.681419 -0.731894
vn 0.000000 -0.681418 -0.731894
vn 0.000000 -0.681419 -0.731894
vn 0.000000 -0.999201 -0.039968
vn 0.000000 -0.999201 -0.039968
vn 0.000000 -0.999201 -0.039968
vn 0.000000 -0.999201 -0.039968
vn 0.000000 -0.999201 -0.039968
vn 0.000000 -0.999201 -0.039968
vn 0.000000 -0.999201 -0.039968
vn 0.000000 -0.999201 -0.039968
vn 0.486598 -0.837402 -0.248957
vn 0.482526 -0.838958 -0.251632
vn 0.469632 -0.843709 -0.260002
vn 0.428571 -0.857143 -0.285714
vn -0.486598 -0.837402 -0.248957
vn -0.469632 -0.843709 -0.260002
vn -0.482526 -0.838958 -0.251632
vn -0.428571 -0.857143 -0.285714
vn 0.910231 0.341336 -0.234454
vn 0.852782 0.498881 -0.154533
vn 0.828826 0.544553 -0.128488
vn 0.827132 0.547531 -0.126738
vn 0.000000 0.991417 -0.130736
vn 0.000000 0.991417 -0.130736
vn 0.000000 0.991417 -0.130736
vn 0.000000 0.991417 -0.130736
vn -0.827132 0.547531 -0.126738
vn -0.852782 0.498881 -0.154533
vn -0.828826 0.544553 -0.128488
vn -0.910231 0.341336 -0.234454
vn 0.000000 0.000000 -1.000000
vn 0.000000 0.000000 -1.000000
vn 0.000000 0.000000 -1.000000
vn 0.000000 0.000000 -1.000000
vn 0.000000 0.000000 -1.000000
vn 0.000000 0.000000 -1.000000
vn -0.719620 0.688332 0.091360
vn -0.713185 0.695202 0.089791
vn -0.708372 0.700253 0.088622
vn -0.708043 0.700597 0.088542
vn 0.719620 0.688332 0.091360
vn 0.708372 0.700253 0.088622
vn 0.713185 0.695202 0.089791
vn 0.708042 0.700597 0.088542
vn 0.000000 0.000000 -1.000000
vn 0.000000 0.000000 -1.000000
vn 0.000000 0.000000 -1.000000
s 1
g GameObject
usemtl lambert2SG
f 35/104/1 36/105/2 2/103/3
f 2/103/3 36/105/2 3/106/4
s 2
f 16/9/5 28/10/6 1/12/7
f 1/12/7 28/10/6 27/11/8
s 3
f 1/21/9 29/22/10 5/24/11
f 5/24/11 29/22/10 10/23/12
s 4
f 38/180/13 9/181/14 35/183/15
f 35/183/15 9/181/14 26/182/16
s 5
f 37/79/17 6/80/18 36/82/19
f 36/82/19 6/80/18 3/81/20
s 6
f 26/112/21 7/113/22 24/111/23
f 24/111/23 7/113/22 23/114/24
s 7
f 19/185/25 7/186/26 18/184/27
f 18/184/27 7/186/26 28/187/28
s 8
f 28/187/29 7/186/30 27/188/31
f 27/188/31 7/186/30 26/182/32
s off
f 23/37/33 22/38/34 21/39/35
s 9
f 8/29/36 5/30/37 56/32/38
f 56/32/38 5/30/37 10/31/39
s 10
f 12/173/40 11/174/41 15/172/42
f 15/172/42 11/174/41 13/175/43
s 11
f 29/14/44 1/15/45 55/13/46
f 55/13/46 1/15/45 27/16/47
s 12
f 28/17/48 16/18/49 54/20/50
f 54/20/50 16/18/49 30/19/51
s 13
f 14/25/52 20/26/53 16/28/54
f 16/28/54 20/26/53 30/27/55
s off
f 25/51/56 5/52/57 8/53/58
f 25/51/59 8/53/60 9/54/61
s 14
f 27/188/62 26/182/63 8/189/64
f 8/189/64 26/182/63 9/181/65
s 15
f 34/108/66 11/109/67 33/107/68
f 33/107/68 11/109/67 12/110/69
s 16
f 20/34/70 14/35/71 53/33/72
f 53/33/72 14/35/71 18/36/73
s off
f 24/40/74 17/41/75 25/42/76
s 17
f 25/63/77 9/64/78 37/66/79
f 37/66/79 9/64/78 38/65/80
s 18
f 16/44/81 21/49/82 14/43/83
f 14/43/83 21/49/82 22/50/84
s 19
f 38/72/85 4/73/86 37/71/87
f 37/71/87 4/73/86 6/74/88
s 20
f 31/190/89 13/191/90 34/193/91
f 34/193/91 13/191/90 11/192/92
s 21
f 3/177/93 6/178/94 2/176/95
f 2/176/95 6/178/94 4/179/96
s 22
f 33/83/97 12/84/98 32/86/99
f 32/86/99 12/84/98 15/85/100
s 23
f 25/47/101 17/48/102 5/45/103
f 5/45/103 17/48/102 1/46/104
s 24
f 36/87/105 24/88/106 37/90/107
f 37/90/107 24/88/106 25/89/108
s 25
f 15/76/109 13/77/110 32/75/111
f 32/75/111 13/77/110 31/78/112
s 26
f 22/67/113 32/68/114 19/70/115
f 19/70/115 32/68/114 31/69/116
s off
f 22/55/117 19/56/118 18/57/119
f 22/55/120 18/57/121 14/58/122
s 27
f 32/91/123 22/92/124 33/94/125
f 33/94/125 22/92/124 23/93/126
s 28
f 23/96/127 7/97/128 33/95/129
f 33/95/129 7/97/128 34/98/130
s 29
f 34/193/131 7/186/132 31/190/133
f 31/190/133 7/186/132 19/185/134
s 30
f 35/99/135 26/100/136 36/102/137
f 36/102/137 26/100/136 24/101/138
s 31
f 35/183/139 2/194/140 38/180/141
f 38/180/141 2/194/140 4/195/142
s 32
f 39/205/143 41/206/144 49/204/145
f 49/204/145 41/206/144 48/207/146
s 33
f 50/116/147 40/117/148 49/122/149
f 49/122/149 40/117/148 39/121/150
s off
f 52/156/151 1/157/152 17/158/153
s 34
f 39/201/154 40/202/155 41/200/156
f 41/200/156 40/202/155 43/203/157
s off
f 47/208/158 50/209/159 44/210/160
f 48/207/161 42/211/162 49/204/163
s 35
f 43/229/164 47/230/165 46/228/166
f 46/228/166 47/230/165 24/231/167
s 36
f 24/221/168 23/222/169 46/220/170
f 46/220/170 23/222/169 45/223/171
s 37
f 46/224/172 45/225/173 43/227/174
f 43/227/174 45/225/173 41/226/175
s 38
f 41/233/176 45/234/177 48/232/178
f 48/232/178 45/234/177 23/235/179
s 39
f 43/212/180 40/213/181 47/208/182
f 47/208/182 40/213/181 50/209/183
s off
f 42/214/184 48/215/185 23/216/186
f 44/217/187 24/218/188 47/219/189
f 51/159/190 21/160/191 16/161/192
s 40
f 42/115/193 21/118/194 49/120/195
f 49/120/195 21/118/194 51/119/196
s 41
f 52/162/197 51/163/198 1/165/199
f 1/165/199 51/163/198 16/164/200
s 42
f 50/123/201 49/120/202 52/124/203
f 52/124/203 49/120/202 51/119/204
s 43
f 44/125/205 50/123/206 17/126/207
f 17/126/207 50/123/206 52/124/208
s off
f 21/166/209 42/167/210 23/168/211
f 24/169/212 44/170/213 17/171/214
s 44
f 10/2/215 29/3/216 56/1/217
f 56/1/217 29/3/216 55/4/218
s 45
f 20/6/219 53/7/220 30/5/221
f 30/5/221 53/7/220 54/8/222
s 46
f 55/196/223 27/188/224 56/197/225
f 56/197/225 27/188/224 8/189/226
s 47
f 28/187/227 54/198/228 18/184/229
f 18/184/229 54/198/228 53/199/230
s 48
f 65/136/231 57/137/232 66/139/233
f 66/139/233 57/137/232 58/138/234
s 49
f 59/141/235 60/142/236 57/140/237
f 57/140/237 60/142/236 58/143/238
s 50
f 66/145/239 64/146/240 65/144/241
f 65/144/241 64/146/240 63/147/242
s 51
f 61/148/243 63/149/244 62/151/245
f 62/151/245 63/149/244 64/150/246
s 52
f 61/153/247 62/154/248 59/152/249
f 59/152/249 62/154/248 60/155/250
s off
f 60/127/251 62/128/252 64/129/253
f 60/130/254 64/131/255 66/132/256
s 53
f 67/60/257 9/54/258 68/59/259
f 68/59/259 9/54/258 8/53/260
s 54
f 69/61/261 70/62/262 19/56/263
f 19/56/263 70/62/262 18/57/264
s off
f 66/133/265 58/134/266 60/135/267
