# This file uses centimeters as units for non-parametric coordinates.

mtllib Pirhana.mtl
g default
v -1.890000 -0.870000 -2.330000
v -1.890000 -0.900000 -1.770000
v 1.890000 -0.870000 -2.330000
v 1.890000 -0.900000 -1.770000
v 0.200000 0.420000 -3.420000
v -0.200000 0.420000 -3.420000
v -0.200000 0.330000 -1.700000
v 0.197450 0.330000 -1.700000
v 0.727450 -0.040000 -1.720000
v 0.730000 0.080000 -4.170000
v -0.730000 0.080000 -4.170000
v -0.730000 -0.040000 -1.720000
v 0.570000 0.040000 -3.440000
v -0.570000 0.040000 -3.440000
v 0.300000 -0.040000 -1.720000
v -0.300000 -0.040000 -1.720000
v -0.200000 0.300000 -1.100000
v 0.200000 0.300000 -1.100000
v 0.940000 -0.100000 -0.670000
v -0.940000 -0.100000 -0.670000
v 0.300000 -0.090000 -0.670000
v -0.300000 -0.090000 -0.670000
v -0.710000 -0.190000 1.030000
v -0.150000 0.900000 -0.810000
v 0.710000 -0.190000 1.030000
v 0.150000 0.900000 -0.810000
v 0.090000 0.740000 1.080000
v -0.090000 0.740000 1.080000
v -0.320000 0.690000 -0.620000
v 0.320000 0.690000 -0.620000
v 0.160000 0.900000 0.070000
v -0.160000 0.900000 0.070000
v 0.410000 0.590000 -0.120000
v -0.410000 0.590000 -0.120000
v -0.160000 0.800000 -1.630000
v 0.160000 0.800000 -1.630000
v 0.110000 -0.550000 4.160000
v -0.100000 -0.550000 4.160000
v 0.530000 -0.250000 2.260000
v -0.530000 -0.250000 2.260000
v -0.730000 -0.600000 2.900000
v 0.730000 -0.600000 2.900000
v -0.100000 0.260000 2.800000
v 0.100000 0.260000 2.800000
v -0.350000 -0.660000 4.160000
v 0.350000 -0.660000 4.160000
v -0.110000 -0.360000 4.170000
v 0.110000 -0.360000 4.170000
v 0.320000 -0.400000 2.910000
v -0.320000 -0.400000 2.910000
v -0.200000 -0.330000 -1.740000
v 0.200000 -0.330000 -1.740000
v -0.840000 0.230000 -1.940000
v -0.420000 0.530000 -1.920000
v -0.840000 0.330000 -3.850000
v -0.430000 0.600000 -3.260000
v 0.837450 0.230000 -1.940000
v 0.840000 0.330000 -3.850000
v 0.417450 0.530000 -1.920000
v 0.430000 0.600000 -3.260000
v 0.150000 0.150000 -3.440000
v 0.090000 0.190000 -3.790000
v 0.000000 0.040000 -3.450000
v 0.000000 0.120000 -3.790000
v -0.150000 0.150000 -3.440000
v -0.090000 0.190000 -3.790000
v -0.090000 0.330000 -3.430000
v -0.060000 0.310000 -3.780000
v 0.090000 0.330000 -3.430000
v 0.060000 0.310000 -3.780000
vt 0.625000 1.000000
vt 0.750000 1.000000
vt 0.750000 0.750000
vt 0.625000 0.750000
vt 0.750000 0.750000
vt 0.625000 0.750000
vt 0.625000 1.000000
vt 0.750000 1.000000
vt 0.750000 1.000000
vt 0.625000 1.000000
vt 0.625000 0.750000
vt 0.750000 0.750000
vt 0.750000 1.000000
vt 0.625000 1.000000
vt 0.625000 0.750000
vt 0.750000 0.750000
vt 0.160156 0.279192
vt 0.160156 0.080183
vt 0.500000 0.080183
vt 0.500000 0.279192
vt 0.250000 0.591030
vt 0.250000 0.742188
vt 0.500000 0.742188
vt 0.425781 0.591030
vt 0.500000 0.742188
vt 0.250000 0.742188
vt 0.250000 0.591030
vt 0.425781 0.591030
vt 0.496094 0.510269
vt 0.250000 0.510269
vt 0.492188 0.580833
vt 0.492188 0.580833
vt 0.480469 0.580833
vt 0.250000 0.580773
vt 0.250000 0.510269
vt 0.427175 0.510269
vt 0.250000 0.580773
vt 0.480469 0.580833
vt 0.427175 0.510269
vt 0.250000 0.510269
vt 0.253906 0.580773
vt 0.250000 0.510269
vt 0.253906 0.580773
vt 0.496094 0.510269
vt 0.951715 0.630525
vt 1.003906 0.750000
vt 0.949219 0.500000
vt 0.875000 0.750000
vt 0.923285 0.630525
vt 0.925781 0.500000
vt 0.949219 0.750000
vt 0.917969 0.750000
vt 0.250000 0.500000
vt 0.074219 0.851322
vt 0.000000 0.851563
vt 0.000000 0.500000
vt 0.074219 0.851322
vt 0.250000 0.500000
vt 0.000000 0.500000
vt 0.000000 0.851563
vt -0.000000 0.080183
vt 0.160156 0.080183
vt 0.160156 0.279192
vt 0.000000 0.279192
vt 0.205212 0.111462
vt 0.341663 0.111462
vt 0.467733 0.247913
vt 0.079142 0.247913
vt 0.405679 0.317166
vt 0.410916 0.074942
vt 0.135959 0.042209
vt 0.248560 0.297526
vt 0.135959 0.042209
vt 0.410916 0.074942
vt 0.405679 0.317166
vt 0.248560 0.297526
vt 0.164840 0.465621
vt 0.171098 0.465621
vt 0.171098 0.471879
vt 0.164840 0.465621
vt 0.171098 0.465621
vt 0.171098 0.471879
vt 0.164840 0.465621
vt 0.171098 0.465621
vt 0.171098 0.471879
vt 0.363704 0.237858
vt 0.363704 0.137142
vt 0.464421 0.137142
vt 0.464421 0.237858
vt 0.363704 0.237858
vt 0.363704 0.137142
vt 0.464421 0.137142
vt 0.464421 0.237858
vt 0.363704 0.237858
vt 0.363704 0.137142
vt 0.464421 0.137142
vt 0.464421 0.237858
vt 0.363704 0.237858
vt 0.363704 0.137142
vt 0.464421 0.137142
vt 0.464421 0.237858
vt 0.363704 0.237858
vt 0.363704 0.137142
vt 0.464421 0.137142
vt 0.464421 0.237858
vt 0.000000 0.851563
vt 0.000000 0.500000
vt 0.074219 0.851322
vt 0.000000 0.851563
vt 0.074219 0.851322
vt 0.000000 0.500000
vt 0.250000 0.500000
vt 0.152344 0.500000
vt 0.152344 0.500000
vt 0.250000 0.500000
vt 0.219135 0.133198
vt 0.358990 0.133198
vt 0.358990 0.273052
vt 0.219135 0.133198
vt 0.358990 0.133198
vt 0.358990 0.273052
vt 0.197036 0.230283
vt 0.043274 0.209910
vt 0.199965 0.112120
vt 0.197036 0.230283
vt 0.199965 0.112120
vt 0.043274 0.209910
vt 0.448913 0.262880
vt 0.448913 0.262880
vt 0.018943 0.259165
vt 0.018943 0.100210
vt 0.297756 0.151801
vt 0.297756 0.207575
vt 0.473245 0.221518
vt 0.473245 0.137857
vt 0.255491 0.845335
vt 0.314821 0.845335
vt 0.314821 0.904665
vt 0.255491 0.845335
vt 0.314821 0.845335
vt 0.314821 0.904665
vt 0.255491 0.845335
vt 0.314821 0.845335
vt 0.314821 0.904665
vt 0.255491 0.904665
vt 0.992188 0.101563
vt 0.992188 0.000000
vt 0.750000 0.000000
vt 0.750000 0.101563
vt 0.812500 0.000000
vt 0.992188 0.000000
vt 0.992188 0.101563
vt 0.812500 0.101563
vt 0.857422 0.554688
vt 0.792969 0.554688
vt 0.861328 0.718750
vt 0.625000 0.718750
vt 0.625000 0.500000
vt 0.792969 0.554688
vt 0.861328 0.718750
vt 0.625000 0.500000
vt 0.750000 0.414063
vt 0.750000 0.250000
vt 1.000000 0.250000
vt 1.000000 0.414063
vt 0.750000 0.414063
vt 1.000000 0.414063
vt 1.000000 0.250000
vt 0.750000 0.250000
vt 0.625000 0.718750
vt 0.857422 0.554688
vt 0.503906 0.656250
vt 0.500000 0.937500
vt 0.625000 0.718750
vt 0.503906 0.656250
vt 0.539063 0.648438
vt 0.625000 0.718750
vt 0.500000 0.937500
vt 0.539063 0.648438
vt 0.500000 0.523438
vt 0.625000 0.523438
vt 0.625000 0.656250
vt 0.500000 0.656250
vt 0.500000 0.523438
vt 0.625000 0.523438
vt 0.625000 0.656250
vt 0.500000 0.656250
vt 0.468750 0.777344
vt 0.324219 0.878906
vt 0.324219 0.960938
vt 0.488281 0.960938
vt 0.468750 0.777344
vt 0.488281 0.960938
vt 0.324219 0.960938
vt 0.324219 0.878906
vt 0.390625 0.898438
vt 0.500000 0.898438
vt 0.500000 0.750000
vt 0.390625 0.898438
vt 0.500000 0.750000
vt 0.500000 0.898438
vt 0.640308 0.468750
vt 0.694734 0.468750
vt 0.652213 0.277100
vt 0.609692 0.468750
vt 0.597787 0.277100
vt 0.555266 0.468750
vt 0.597787 0.277100
vt 0.652213 0.277100
vt 0.694734 0.468750
vt 0.555266 0.468750
vt 0.555266 0.468750
vt 0.694734 0.468750
vt 0.652213 0.277100
vt 0.597787 0.277100
vt 0.169947 0.090887
vt 0.209976 0.113076
vt 0.169322 0.136373
vt 0.169322 0.207377
vt 0.209976 0.230674
vt 0.169947 0.252863
vt 0.286908 0.250644
vt 0.286908 0.093106
vt 0.393236 0.067589
vt 0.393236 0.138592
vt 0.393236 0.205158
vt 0.393236 0.276161
vt 0.091139 0.160781
vt 0.091139 0.133045
vt 0.091139 0.184079
vt 0.091139 0.210705
vt 0.000000 0.661294
vt 0.031250 0.661294
vt 0.031250 0.734375
vt 0.000000 0.710938
vt 0.031250 0.661294
vt 0.031250 0.734375
vt 0.000000 0.710938
vt 0.000000 0.661294
vn 0.582080 0.811722 0.047855
vn 0.584967 0.809729 0.046405
vn 0.590738 0.805691 0.043492
vn 0.591843 0.804909 0.042932
vn -0.591123 0.805478 0.042172
vn -0.584756 0.809938 0.045399
vn -0.590100 0.806201 0.042692
vn -0.582076 0.811790 0.046751
vn 0.708123 -0.679361 -0.192431
vn 0.708123 -0.679361 -0.192431
vn 0.708123 -0.679361 -0.192431
vn -0.708123 -0.679361 -0.192431
vn -0.708123 -0.679361 -0.192431
vn -0.708123 -0.679361 -0.192431
vn 0.000000 -0.058041 0.998314
vn 0.000000 -0.058041 0.998314
vn 0.000000 -0.058041 0.998314
vn -0.476366 -0.877988 -0.047035
vn -0.476366 -0.877988 -0.047035
vn -0.476366 -0.877988 -0.047035
vn 0.476366 -0.877988 -0.047035
vn 0.476366 -0.877988 -0.047035
vn 0.476366 -0.877988 -0.047035
vn 0.000000 0.998634 0.052254
vn 0.000000 0.998634 0.052254
vn 0.000000 0.998634 0.052254
vn 0.000000 0.998634 0.052254
vn -0.591157 0.805402 0.043146
vn -0.591157 0.805402 0.043146
vn -0.591157 0.805402 0.043146
vn -0.596191 0.801881 0.039276
vn -0.596191 0.801881 0.039276
vn -0.596191 0.801881 0.039276
vn 0.491989 -0.862058 -0.121665
vn 0.471850 -0.868649 -0.151016
vn 0.484412 -0.864696 -0.132837
vn 0.594395 0.803180 0.039958
vn 0.594395 0.803180 0.039958
vn 0.594395 0.803180 0.039958
vn 0.595360 0.802309 0.042981
vn 0.595360 0.802309 0.042981
vn 0.595360 0.802309 0.042981
vn 0.000000 -0.058041 0.998314
vn 0.000000 -0.058041 0.998314
vn 0.000000 -0.058041 0.998314
vn 0.945588 -0.324998 -0.015476
vn 0.945588 -0.324998 -0.015476
vn 0.945588 -0.324998 -0.015476
vn 0.000000 0.052559 -0.998618
vn 0.000000 0.052559 -0.998618
vn 0.000000 0.052559 -0.998618
vn 0.000000 0.052559 -0.998618
vn -0.484412 -0.864696 -0.132837
vn -0.491989 -0.862058 -0.121665
vn -0.494652 -0.861085 -0.117699
vn 0.420251 -0.844975 -0.330767
vn 0.420251 -0.844975 -0.330767
vn 0.420251 -0.844975 -0.330767
vn 0.000000 -0.974391 -0.224860
vn 0.000000 -0.974391 -0.224860
vn 0.000000 -0.974391 -0.224860
vn 0.000000 -0.974391 -0.224859
vn -0.420251 -0.844975 -0.330767
vn -0.420251 -0.844975 -0.330767
vn -0.420251 -0.844975 -0.330767
vn 0.000000 -0.998812 -0.048723
vn 0.000000 -0.998812 -0.048723
vn 0.000000 -0.998812 -0.048723
vn 0.000000 -0.998812 -0.048723
vn 0.015599 -0.998366 -0.054965
vn 0.015599 -0.998366 -0.054965
vn 0.015599 -0.998366 -0.054965
vn -0.015599 -0.998366 -0.054965
vn -0.015599 -0.998366 -0.054965
vn -0.015599 -0.998366 -0.054965
vn 0.396319 -0.900725 -0.177839
vn 0.407536 -0.895954 -0.176578
vn 0.432136 -0.884923 -0.173693
vn 0.435200 -0.883494 -0.173322
vn 0.000000 -0.992877 -0.119145
vn 0.000000 -0.992877 -0.119145
vn 0.000000 -0.992877 -0.119145
vn 0.000000 -0.992877 -0.119145
vn 0.022599 -0.051360 0.998424
vn 0.022599 -0.051360 0.998425
vn 0.022599 -0.051360 0.998425
vn -0.005817 -0.727162 -0.686441
vn -0.005817 -0.727162 -0.686441
vn -0.005817 -0.727162 -0.686441
vn 0.763904 0.590003 0.261433
vn 0.762148 0.592887 0.260031
vn 0.763558 0.590574 0.261156
vn 0.758740 0.598414 0.257322
vn 0.000000 0.911048 0.412299
vn 0.000000 0.911048 0.412299
vn 0.000000 0.911049 0.412299
vn 0.000000 0.911049 0.412299
vn -0.763904 0.590003 0.261433
vn -0.763558 0.590574 0.261156
vn -0.762148 0.592887 0.260031
vn -0.758740 0.598414 0.257322
vn -0.435200 -0.883494 -0.173322
vn -0.417533 -0.891567 -0.175425
vn -0.433338 -0.884364 -0.173548
vn -0.410130 -0.894829 -0.176281
vn -0.781127 0.624310 -0.008876
vn -0.781127 0.624310 -0.008876
vn -0.781127 0.624310 -0.008876
vn -0.774468 0.632482 -0.012908
vn -0.774468 0.632482 -0.012908
vn -0.774468 0.632482 -0.012908
vn 0.784741 0.619581 -0.017337
vn 0.784741 0.619581 -0.017337
vn 0.784741 0.619581 -0.017337
vn 0.775736 0.630996 -0.008815
vn 0.775736 0.630996 -0.008815
vn 0.775736 0.630996 -0.008815
vn 0.000000 1.000000 0.000000
vn 0.000000 1.000000 0.000000
vn 0.000000 1.000000 0.000000
vn 0.000000 1.000000 0.000000
vn 0.783647 0.618607 -0.056769
vn 0.783647 0.618607 -0.056769
vn 0.783647 0.618607 -0.056769
vn -0.827277 0.542345 0.146542
vn -0.826840 0.542852 0.147130
vn -0.827047 0.542612 0.146852
vn -0.826595 0.543136 0.147460
vn -0.802645 0.593168 -0.062549
vn -0.802645 0.593168 -0.062549
vn -0.802645 0.593168 -0.062549
vn 0.785988 0.617983 -0.017881
vn 0.785988 0.617983 -0.017881
vn 0.785988 0.617983 -0.017881
vn -0.826086 0.542526 0.152474
vn -0.832854 0.534154 0.145029
vn -0.830309 0.537334 0.147850
vn -0.836279 0.529814 0.141193
vn -0.024081 -0.052545 0.998328
vn -0.024081 -0.052545 0.998328
vn -0.024081 -0.052545 0.998328
vn 0.826086 0.542526 0.152474
vn 0.830309 0.537334 0.147850
vn 0.832854 0.534154 0.145029
vn 0.836278 0.529814 0.141193
vn -0.785988 0.617983 -0.017881
vn -0.785988 0.617983 -0.017881
vn -0.785988 0.617983 -0.017881
vn 0.811860 0.565348 0.145828
vn 0.811860 0.565348 0.145828
vn 0.811860 0.565348 0.145828
vn -0.811860 0.565348 0.145828
vn -0.811860 0.565348 0.145828
vn -0.811860 0.565348 0.145828
vn 0.000000 0.987684 0.156465
vn 0.000000 0.987684 0.156465
vn 0.000000 0.987684 0.156465
vn 0.000000 0.987684 0.156465
vn -0.783647 0.618607 -0.056769
vn -0.783647 0.618607 -0.056769
vn -0.783647 0.618607 -0.056769
vn 0.802645 0.593168 -0.062549
vn 0.802645 0.593168 -0.062549
vn 0.802645 0.593168 -0.062549
vn 0.000000 0.992646 -0.121054
vn 0.000000 0.992646 -0.121054
vn 0.000000 0.992646 -0.121054
vn 0.000000 0.992646 -0.121054
vn 0.000000 -0.052560 0.998618
vn 0.000000 -0.052560 0.998618
vn 0.000000 -0.052560 0.998618
vn 0.000000 -0.052560 0.998618
vn 0.800218 0.594963 0.075302
vn 0.800218 0.594963 0.075302
vn 0.800218 0.594963 0.075302
vn 0.826595 0.543136 0.147460
vn 0.826840 0.542852 0.147130
vn 0.827047 0.542612 0.146852
vn 0.827277 0.542345 0.146542
vn 0.000000 0.963196 0.268799
vn 0.000000 0.963196 0.268799
vn 0.000000 0.963196 0.268799
vn 0.000000 0.963196 0.268799
vn -0.800218 0.594963 0.075302
vn -0.800218 0.594963 0.075302
vn -0.800218 0.594963 0.075302
vn 0.005817 -0.727162 -0.686441
vn 0.005817 -0.727162 -0.686441
vn 0.005817 -0.727162 -0.686441
vn 0.000000 -0.727394 -0.686220
vn 0.000000 -0.727394 -0.686220
vn 0.000000 -0.727394 -0.686220
vn 0.000000 -0.727394 -0.686220
vn 0.000000 0.998752 0.049938
vn 0.000000 0.998752 0.049938
vn 0.000000 0.998752 0.049938
vn 0.000000 0.998752 0.049938
vn 0.011594 -0.742010 -0.670289
vn 0.011594 -0.742010 -0.670289
vn 0.011594 -0.742010 -0.670289
vn -0.011594 -0.742010 -0.670289
vn -0.011594 -0.742010 -0.670289
vn -0.011594 -0.742010 -0.670289
vn -0.250614 0.802793 -0.541033
vn -0.250945 0.802410 -0.541447
vn -0.250688 0.802708 -0.541125
vn -0.251078 0.802257 -0.541613
vn 0.000000 -0.053975 0.998542
vn 0.000000 -0.053975 0.998542
vn 0.000000 -0.053975 0.998542
vn -0.630751 0.775214 0.034589
vn -0.634922 0.771763 0.035447
vn -0.649278 0.759580 0.038421
vn -0.650694 0.758352 0.038717
vn 0.000000 -0.053975 0.998542
vn 0.000000 -0.053975 0.998542
vn 0.000000 -0.053975 0.998542
vn -0.945588 -0.324998 -0.015476
vn -0.945588 -0.324998 -0.015476
vn -0.945588 -0.324998 -0.015476
vn -0.965459 0.260231 0.013012
vn -0.965332 0.260713 0.012727
vn -0.965242 0.261058 0.012523
vn -0.965204 0.261202 0.012438
vn 0.965204 0.261202 0.012438
vn 0.964480 0.263933 0.010824
vn 0.964992 0.262008 0.011962
vn 0.963758 0.266617 0.009235
vn -0.934368 -0.331249 0.131267
vn -0.934368 -0.331249 0.131267
vn -0.934368 -0.331249 0.131267
vn 0.000000 -0.977125 -0.212668
vn 0.000000 -0.977124 -0.212668
vn 0.000000 -0.977124 -0.212668
vn 0.000000 -0.977124 -0.212668
vn 0.934368 -0.331249 0.131267
vn 0.934368 -0.331249 0.131267
vn 0.934368 -0.331249 0.131267
vn -0.364145 0.478419 0.799071
vn -0.369374 0.480071 0.795673
vn -0.374703 0.481739 0.792165
vn -0.383478 0.484450 0.786291
vn -0.923774 -0.382481 -0.018734
vn -0.920684 -0.389789 -0.020163
vn -0.923615 -0.382860 -0.018808
vn -0.919951 -0.391496 -0.020497
vn 0.250614 0.802793 -0.541033
vn 0.250688 0.802708 -0.541125
vn 0.250945 0.802410 -0.541447
vn 0.251078 0.802257 -0.541613
vn 0.650113 0.758799 0.039705
vn 0.635184 0.771494 0.036584
vn 0.648774 0.759960 0.039423
vn 0.631224 0.774775 0.035763
vn 0.920351 -0.390621 -0.019223
vn 0.920931 -0.389265 -0.018957
vn 0.923253 -0.383775 -0.017880
vn 0.923379 -0.383475 -0.017821
vn 0.364145 0.478419 0.799071
vn 0.374703 0.481738 0.792165
vn 0.369374 0.480071 0.795673
vn 0.383478 0.484450 0.786291
vn 0.000000 -0.998274 -0.058722
vn 0.000000 -0.998274 -0.058722
vn 0.000000 -0.998274 -0.058722
vn 0.000000 -0.998274 -0.058722
vn 0.000000 -0.975756 0.218861
vn 0.000000 -0.975756 0.218861
vn 0.000000 -0.975756 0.218861
vn 0.000000 -0.975756 0.218861
vn 0.942356 0.319620 -0.099037
vn 0.945331 0.308770 -0.104931
vn 0.952795 0.278368 -0.121214
vn 0.958459 0.250918 -0.135631
vn 0.589141 -0.786550 -0.185071
vn 0.597181 -0.779492 -0.189121
vn 0.591057 -0.784884 -0.186034
vn 0.602539 -0.774693 -0.191829
vn 0.000000 0.998371 -0.057050
vn 0.000000 0.998371 -0.057050
vn 0.000000 0.998371 -0.057050
vn 0.000000 0.998371 -0.057050
vn -0.939215 0.319985 -0.124439
vn -0.943310 0.309343 -0.120300
vn -0.954307 0.278508 -0.108309
vn -0.963656 0.248983 -0.096827
vn -0.589141 -0.786550 -0.185071
vn -0.591057 -0.784884 -0.186034
vn -0.597181 -0.779492 -0.189121
vn -0.602539 -0.774692 -0.191829
vn 0.000000 0.083045 -0.996546
vn 0.000000 0.083045 -0.996546
vn 0.000000 0.083045 -0.996546
vn 0.000000 0.083045 -0.996546
vn 0.000000 0.083045 -0.996546
vn 0.000000 0.083045 -0.996546
vn 0.000000 0.000000 -1.000000
vn 0.000000 0.000000 -1.000000
vn 0.000000 0.000000 -1.000000
vn -0.471850 -0.868649 -0.151016
vn 0.494652 -0.861084 -0.117699
s 1
g GameObject
usemtl lambert2SG
f 59/21/1 57/22/2 60/24/3
f 60/24/3 57/22/2 58/23/4
s 2
f 55/25/5 53/26/6 56/28/7
f 56/28/7 53/26/6 54/27/8
s off
f 14/116/9 11/117/10 6/118/11
f 13/119/12 5/120/13 10/121/14
f 12/232/15 2/233/16 16/234/17
f 4/106/18 15/107/19 3/108/20
f 2/109/21 1/110/22 16/111/23
s 3
f 7/17/24 8/18/25 6/20/26
f 6/20/26 8/18/25 5/19/27
s off
f 11/53/28 1/54/29 2/55/30
f 11/53/31 2/55/32 12/56/33
s 4
f 1/110/34 11/112/35 14/113/36
s off
f 3/57/37 10/58/38 9/59/39
f 3/57/40 9/59/41 4/60/42
f 9/235/43 15/236/44 4/237/45
f 15/122/46 21/123/47 52/124/48
s 5
f 6/65/49 5/66/50 14/68/51
f 14/68/51 5/66/50 13/67/52
s 6
f 13/114/53 3/108/54 15/107/55
s off
f 41/216/56 40/217/57 50/218/58
s 7
f 49/219/59 50/218/60 39/220/61
f 39/220/61 50/218/60 40/217/62
s off
f 42/221/63 49/219/64 39/220/65
s 8
f 25/222/66 39/220/67 23/223/68
f 23/223/68 39/220/67 40/217/69
s off
f 23/223/70 20/224/71 22/225/72
f 21/226/73 19/227/74 25/222/75
s 9
f 38/228/76 45/229/77 50/218/78
f 50/218/78 45/229/77 41/216/79
s 10
f 37/230/80 38/228/81 49/219/82
f 49/219/82 38/228/81 50/218/83
s off
f 45/136/84 38/137/85 47/138/86
f 17/45/87 20/46/88 35/47/89
s 11
f 44/188/90 48/189/91 42/191/92
f 42/191/92 48/189/91 46/190/93
s 12
f 44/146/94 43/147/95 48/149/96
f 48/149/96 43/147/95 47/148/97
s 13
f 43/192/98 41/193/99 47/195/100
f 47/195/100 41/193/99 45/194/101
s 14
f 42/221/102 46/231/103 49/219/104
f 49/219/104 46/231/103 37/230/105
s off
f 32/208/106 24/209/107 29/210/108
f 32/208/109 29/210/110 34/211/111
f 33/212/112 30/213/113 26/214/114
f 33/212/115 26/214/116 31/215/117
s 15
f 31/184/118 26/185/119 32/187/120
f 32/187/120 26/185/119 24/186/121
s off
f 30/172/122 19/173/123 36/174/124
s 16
f 43/163/125 28/164/126 40/162/127
f 40/162/127 28/164/126 23/165/128
s off
f 29/175/129 24/176/130 35/177/131
f 30/154/132 33/155/133 19/156/134
s 17
f 28/158/135 34/159/136 23/157/137
f 23/157/137 34/159/136 20/160/138
s off
f 46/139/139 48/140/140 37/141/141
s 18
f 27/161/142 25/170/143 33/155/144
f 33/155/144 25/170/143 19/156/145
s off
f 29/171/146 20/160/147 34/159/148
f 27/202/149 33/203/150 31/204/151
f 28/205/152 32/206/153 34/207/154
s 19
f 28/205/155 27/202/156 32/206/157
f 32/206/157 27/202/156 31/204/158
s off
f 29/175/159 35/177/160 20/178/161
f 30/172/162 36/174/163 26/179/164
s 20
f 26/180/165 36/181/166 24/183/167
f 24/183/167 36/181/166 35/182/168
s 21
f 37/143/169 48/144/170 38/142/171
f 38/142/171 48/144/170 47/145/172
s off
f 42/196/173 39/197/174 44/198/175
s 22
f 25/167/176 27/168/177 39/166/178
f 39/166/178 27/168/177 44/169/179
s 23
f 28/150/180 43/151/181 27/153/182
f 27/153/182 43/151/181 44/152/183
s off
f 41/199/184 43/200/185 40/201/186
f 19/48/187 18/49/188 36/50/189
s 24
f 36/50/190 18/49/191 35/47/192
f 35/47/192 18/49/191 17/45/193
s 25
f 18/61/194 8/62/195 17/64/196
f 17/64/196 8/62/195 7/63/197
s off
f 22/51/198 20/46/199 17/45/200
f 21/52/201 18/49/202 19/48/203
s 26
f 10/1/204 5/2/205 58/4/206
f 58/4/206 5/2/205 60/3/207
s off
f 12/232/208 16/234/209 7/238/210
s 27
f 60/36/211 5/33/212 59/35/213
f 59/35/213 5/33/212 8/34/214
s off
f 9/235/215 8/239/216 15/236/217
f 16/125/218 51/126/219 22/127/220
s 28
f 7/69/221 16/70/222 17/72/223
f 17/72/223 16/70/222 22/71/224
s 29
f 21/73/225 15/74/226 18/76/227
f 18/76/227 15/74/226 8/75/228
s off
f 51/126/229 16/125/230 14/128/231
s 30
f 14/130/232 13/131/233 51/133/234
f 51/133/234 13/131/233 52/132/235
s off
f 13/129/236 15/122/237 52/124/238
s 31
f 7/10/239 54/11/240 12/9/241
f 12/9/241 54/11/240 53/12/242
s 32
f 11/29/243 12/30/244 55/31/245
f 55/31/245 12/30/244 53/43/246
s 33
f 11/6/247 55/7/248 6/5/249
f 6/5/249 55/7/248 56/8/250
s 34
f 7/37/251 6/38/252 54/40/253
f 54/40/253 6/38/252 56/39/254
s 35
f 57/41/255 9/42/256 58/32/257
f 58/32/257 9/42/256 10/44/258
s 36
f 8/13/259 9/14/260 59/16/261
f 59/16/261 9/14/260 57/15/262
s 37
f 23/223/263 22/225/264 25/222/265
f 25/222/265 22/225/264 21/226/266
s 38
f 22/134/267 51/133/268 21/135/269
f 21/135/269 51/133/268 52/132/270
s 39
f 69/86/271 61/87/272 70/89/273
f 70/89/273 61/87/272 62/88/274
s 40
f 63/91/275 64/92/276 61/90/277
f 61/90/277 64/92/276 62/93/278
s 41
f 67/94/279 69/95/280 68/97/281
f 68/97/281 69/95/280 70/96/282
s 42
f 65/98/283 67/99/284 66/101/285
f 66/101/285 67/99/284 68/100/286
s 43
f 63/102/287 65/103/288 64/105/289
f 64/105/289 65/103/288 66/104/290
s off
f 70/77/291 62/78/292 66/79/293
f 70/80/294 66/81/295 68/82/296
f 64/83/297 66/84/298 62/85/299
s 6
f 13/114/53 10/115/300 3/108/54
s 4
f 1/110/34 14/113/36 16/111/301
