# This file uses centimeters as units for non-parametric coordinates.

mtllib Qirex.mtl
g default
v 0.500000 0.170000 -2.700000
v 0.590000 -0.240000 3.810000
v 1.710000 -0.670000 -2.760000
v 1.500000 -0.550000 3.790000
v 1.250000 0.170000 -2.710000
v 1.250000 -0.200000 3.180000
v 0.500000 0.081716 -1.489974
v 1.030000 0.220000 -3.620000
v 1.250000 0.090000 -1.490000
v 1.600000 -0.550000 -1.530000
v 0.500000 -0.270000 -2.730000
v 0.500000 0.220000 -3.620000
v 0.510000 0.190000 -3.150000
v 0.500000 -0.210000 -3.640000
v 1.710000 -0.610000 -3.670000
v -1.250000 -0.020000 0.560000
v -0.500000 -0.020000 0.560000
v 1.250000 -0.110000 1.970000
v 1.720000 -0.760000 1.940000
v 1.500000 -0.500000 0.530000
v 0.500000 -0.568284 -1.529974
v -0.500000 0.170000 -2.700000
v -0.590000 -0.240000 3.810000
v -1.710000 -0.670000 -2.760000
v -1.500000 -0.550000 3.790000
v -1.250000 0.170000 -2.710000
v -1.250000 -0.200000 3.180000
v -0.500000 0.090000 -1.490000
v -1.030000 0.220000 -3.620000
v -1.250000 0.090000 -1.490000
v -1.600000 -0.550000 -1.530000
v -0.500000 -0.270000 -2.730000
v -0.500000 0.220000 -3.620000
v -0.510000 0.190000 -3.150000
v -0.190000 0.090000 -1.490000
v -0.110000 0.760000 -2.980000
v 0.190000 0.090000 -1.490000
v 0.110000 0.760000 -2.980000
v 0.000000 0.730000 -2.520000
v -0.220000 0.220000 -3.620000
v 0.220000 0.220000 -3.620000
v -0.070000 0.750000 -2.810000
v 0.070000 0.750000 -2.810000
v -0.500000 -0.210000 -3.640000
v -1.710000 -0.610000 -3.670000
v -0.500000 -0.480000 0.540000
v 0.500000 -0.488284 0.540026
v -1.250000 -0.110000 1.970000
v -1.720000 -0.760000 1.940000
v -1.500000 -0.500000 0.530000
v -0.500000 -0.560000 -1.530000
v 1.250000 -0.020000 0.560000
v 0.500000 -0.028284 0.560026
v 0.110000 0.020000 -3.800000
v 0.190000 -0.050000 -3.150000
v 0.070000 0.150000 -3.790000
v 0.120000 0.190000 -3.580000
v -0.070000 0.150000 -3.790000
v -0.120000 0.190000 -3.580000
v -0.110000 0.020000 -3.800000
v -0.190000 -0.050000 -3.150000
v 0.000000 -0.060000 -3.810000
v 0.000000 -0.260000 -2.780000
vt 0.250000 0.968750
vt 0.363281 0.968750
vt 0.250000 0.757734
vt 0.250000 0.968750
vt 0.250000 0.757734
vt 0.363281 0.968750
vt 0.500000 0.757734
vt 0.324219 0.757734
vt 0.324219 0.968750
vt 0.500000 0.968750
vt 0.500000 0.968750
vt 0.324219 0.968750
vt 0.324219 0.757734
vt 0.500000 0.757734
vt 0.500000 0.968750
vt 0.500000 0.757734
vt 0.500000 0.968750
vt 0.500000 0.757734
vt 0.250000 0.718711
vt 0.378906 0.718789
vt 0.405197 0.545376
vt 0.250000 0.545376
vt 0.500000 0.504424
vt 0.462544 0.546839
vt 0.500000 0.545376
vt 0.250000 0.545376
vt 0.405197 0.545376
vt 0.378906 0.718789
vt 0.250000 0.718711
vt 0.250000 0.500036
vt 0.500000 0.545376
vt 0.462544 0.546839
vt 0.500000 0.504424
vt 0.250000 0.500036
vt 0.500000 0.718711
vt 0.500000 0.718711
vt 0.000000 1.000000
vt 0.113281 1.000000
vt 0.113281 0.750000
vt 0.000000 0.750000
vt 0.250000 1.000000
vt 0.250000 0.750000
vt 0.000000 0.750000
vt 0.113281 0.750000
vt 0.113281 1.000000
vt 0.000000 1.000000
vt 0.250000 1.000000
vt 0.250000 0.750000
vt 0.750000 0.250000
vt 1.000000 0.250000
vt 1.000000 0.500000
vt 0.750000 0.500000
vt 0.750000 0.500000
vt 1.000000 0.500000
vt 1.000000 0.250000
vt 0.750000 0.250000
vt 1.000000 0.250000
vt 1.000000 0.000000
vt 0.750000 0.000000
vt 0.750000 0.250000
vt 1.000000 0.250000
vt 0.750000 0.250000
vt 0.750000 0.000000
vt 1.000000 0.000000
vt 0.250000 0.500036
vt 0.000000 0.500036
vt 0.000000 0.750000
vt 0.250000 0.750000
vt 0.000000 0.750000
vt 0.000000 0.500036
vt 0.250000 0.500036
vt 0.250000 0.750000
vt 0.058594 0.648438
vt 0.003906 0.750000
vt 0.000000 0.500036
vt 0.058594 0.648438
vt 0.000000 0.500036
vt 0.003906 0.750000
vt 0.615143 0.304688
vt 0.615143 0.500000
vt 0.712982 0.500000
vt 0.712982 0.304688
vt 0.667969 0.500000
vt 0.585938 0.671875
vt 0.500000 0.500000
vt 0.650307 0.725564
vt 0.750000 0.593750
vt 0.695313 0.750000
vt 0.550781 0.320192
vt 0.554688 0.460938
vt 0.512811 0.320192
vt 0.650307 0.725564
vt 0.695313 0.750000
vt 0.750000 0.593750
vt 0.750000 0.539063
vt 0.750000 0.681040
vt 0.875000 0.609375
vt 0.875000 0.539063
vt 0.875000 0.539063
vt 0.875000 0.609375
vt 0.750000 0.681040
vt 0.750000 0.539063
vt 0.655494 0.612525
vt 0.680444 0.612525
vt 0.680444 0.637475
vt 0.655494 0.612525
vt 0.680444 0.612525
vt 0.680444 0.637475
vt 0.655494 0.612525
vt 0.680444 0.612525
vt 0.680444 0.637475
vt 0.452619 0.131840
vt 0.449378 0.261212
vt 0.305194 0.132813
vt 0.452619 0.131840
vt 0.305194 0.132813
vt 0.449378 0.261212
vt 0.771516 0.693328
vt 0.771516 0.601563
vt 0.871094 0.601563
vt 0.871094 0.693328
vt 0.771516 0.693328
vt 0.771516 0.601563
vt 0.871094 0.601563
vt 0.871094 0.693328
vt 0.771516 0.693328
vt 0.771516 0.601563
vt 0.871094 0.601563
vt 0.871094 0.693328
vt 0.771516 0.693328
vt 0.771516 0.601563
vt 0.871094 0.601563
vt 0.871094 0.693328
vt 0.771516 0.693328
vt 0.771516 0.601563
vt 0.871094 0.601563
vt 0.871094 0.693328
vt 0.775804 0.609425
vt 0.864821 0.609425
vt 0.837226 0.687450
vt 0.803399 0.687450
vt 0.864821 0.687450
vt 0.775804 0.687450
vt 0.807189 0.751108
vt 0.841249 0.751108
vt 0.862923 0.608267
vt 0.785515 0.608267
vt 0.862923 0.751108
vt 0.785515 0.751108
vt 0.342170 0.243070
vt 0.342168 0.126838
vt 0.419837 0.254693
vt 0.211460 0.126838
vt 0.123059 0.255750
vt 0.004980 0.136348
vt 0.417943 0.126838
vt 0.475404 0.126838
vt 0.477298 0.254693
vt 0.212093 0.232504
vt 0.212093 0.149642
vt 0.342170 0.139076
vt 0.342170 0.255307
vt 0.211461 0.255307
vt 0.006243 0.149642
vt 0.123060 0.126396
vt 0.004980 0.245797
vt 0.417943 0.255307
vt 0.419837 0.127453
vt 0.477298 0.127453
vt 0.475404 0.255307
vt 0.006243 0.232504
vt 0.617188 0.632813
vt 0.687500 0.500000
vt 0.550781 0.320192
vt 0.554688 0.460938
vt 0.596564 0.320192
vt 0.596564 0.320192
vt 0.512811 0.320192
vt 0.886099 0.500000
vt 0.554688 0.460938
vt 0.528039 0.389575
vt 0.512811 0.320192
vt 0.596564 0.320192
vt 0.581336 0.389575
vt 0.250000 0.500036
vt 0.250000 0.750000
vt 0.001053 0.619909
vt 0.250000 0.750000
vt 0.250000 0.500036
vt 0.001053 0.619909
vt 0.750000 0.250000
vt 0.750000 0.500000
vt 0.750000 0.500000
vt 0.750000 0.250000
vt 0.884049 0.250000
vt 0.886099 0.500000
vt 1.003906 0.382908
vt 0.884049 0.250000
vt 1.003906 0.382908
vt 0.687500 0.500000
vn -0.999618 -0.001200 0.027604
vn -0.999618 -0.001200 0.027604
vn -0.999618 -0.001200 0.027604
vn 0.016541 -0.994994 0.098552
vn 0.016541 -0.994994 0.098552
vn 0.016541 -0.994995 0.098552
vn 0.877449 0.478616 0.031777
vn 0.877539 0.478460 0.031655
vn 0.877613 0.478331 0.031554
vn 0.877764 0.478068 0.031349
vn 0.000872 0.997857 0.065433
vn -0.003263 0.997681 0.067985
vn -0.006804 0.997512 0.070168
vn -0.011013 0.997288 0.072763
vn 0.010364 0.997192 0.074171
vn 0.010364 0.997192 0.074171
vn 0.010364 0.997192 0.074171
vn 0.810536 0.584075 0.043444
vn 0.796570 0.603840 0.029224
vn 0.805703 0.591070 0.038452
vn 0.792334 0.609574 0.025029
vn -0.303747 -0.949351 0.080443
vn -0.303747 -0.949351 0.080443
vn -0.303747 -0.949351 0.080443
vn -0.006680 0.054676 -0.998482
vn -0.006680 0.054676 -0.998482
vn -0.006680 0.054676 -0.998482
vn 0.000000 0.046462 -0.998920
vn 0.000000 0.046462 -0.998920
vn 0.000000 0.046462 -0.998920
vn 0.877450 0.478630 0.031558
vn 0.823600 0.563627 -0.063305
vn 0.816205 0.572949 -0.074423
vn 0.760470 0.632019 -0.149124
vn 0.887282 0.460290 0.029380
vn 0.824177 0.566240 -0.010270
vn 0.858529 0.512664 0.010204
vn 0.809816 0.586401 -0.018224
vn 0.306164 0.874465 0.376265
vn 0.306164 0.874465 0.376265
vn 0.306164 0.874465 0.376265
vn 0.000000 0.997969 0.063700
vn 0.000000 0.997969 0.063700
vn 0.000000 0.997969 0.063700
vn -0.314656 -0.947149 -0.062449
vn -0.314656 -0.947149 -0.062449
vn -0.314656 -0.947149 -0.062449
vn -0.314656 -0.947149 -0.062449
vn -0.310631 -0.922461 -0.229291
vn -0.310631 -0.922461 -0.229291
vn -0.310631 -0.922461 -0.229291
vn 0.016615 -0.999548 0.025067
vn -0.002200 -0.999413 0.034197
vn 0.009086 -0.999546 0.028722
vn -0.011319 -0.999190 0.038616
vn 0.999618 -0.001200 0.027601
vn 0.999618 -0.001200 0.027601
vn 0.999618 -0.001200 0.027601
vn 0.000000 -0.876008 -0.482297
vn 0.000000 -0.876008 -0.482296
vn 0.000000 -0.876008 -0.482296
vn 0.000000 -0.876008 -0.482296
vn 0.000000 -0.876008 -0.482296
vn 0.000000 -0.876008 -0.482296
vn -0.877764 0.478068 0.031349
vn -0.877539 0.478460 0.031655
vn -0.877613 0.478331 0.031554
vn -0.877449 0.478616 0.031777
vn 0.000000 0.997822 0.065972
vn -0.000569 0.997845 0.065620
vn -0.000309 0.997834 0.065781
vn -0.000872 0.997857 0.065433
vn -0.010364 0.997192 0.074171
vn -0.010364 0.997192 0.074171
vn -0.010364 0.997192 0.074171
vn -0.792334 0.609574 0.025029
vn -0.796570 0.603840 0.029224
vn -0.805703 0.591070 0.038452
vn -0.810536 0.584075 0.043444
vn 0.000000 0.998275 0.058721
vn 0.000000 0.998275 0.058721
vn 0.000000 0.998275 0.058721
vn 0.000000 0.998274 0.058722
vn 0.000000 0.998274 0.058722
vn 0.000000 0.998274 0.058722
vn 0.009406 0.046460 -0.998876
vn 0.009406 0.046460 -0.998876
vn 0.009406 0.046460 -0.998876
vn 0.000000 0.060132 -0.998191
vn 0.000000 0.060132 -0.998190
vn 0.000000 0.060132 -0.998191
vn 0.000000 -0.876008 -0.482297
vn 0.000000 -0.876008 -0.482297
vn 0.000000 -0.876008 -0.482297
vn -0.877450 0.478630 0.031558
vn -0.816205 0.572949 -0.074423
vn -0.823600 0.563627 -0.063305
vn -0.760470 0.632019 -0.149124
vn 1.000000 0.000000 0.000000
vn 1.000000 0.000000 0.000000
vn 1.000000 0.000000 0.000000
vn 1.000000 0.000000 0.000000
vn 1.000000 0.000000 0.000000
vn 1.000000 0.000000 0.000000
vn 0.000000 0.849385 0.527773
vn 0.000000 0.849385 0.527773
vn 0.000000 0.849385 0.527773
vn 0.823828 0.565174 0.043426
vn 0.823828 0.565174 0.043426
vn 0.823828 0.565174 0.043426
vn -0.694899 0.604028 -0.390213
vn -0.694899 0.604028 -0.390213
vn -0.694899 0.604028 -0.390213
vn 0.764412 0.607609 0.215603
vn 0.764412 0.607609 0.215603
vn 0.764412 0.607609 0.215603
vn -0.764412 0.607610 0.215603
vn -0.764412 0.607610 0.215603
vn -0.764412 0.607610 0.215603
vn 0.694898 0.604028 -0.390213
vn 0.694898 0.604028 -0.390213
vn 0.694898 0.604028 -0.390213
vn 0.000000 0.764291 -0.644871
vn 0.000000 0.764291 -0.644871
vn 0.000000 0.764291 -0.644871
vn 0.000000 0.764291 -0.644871
vn -0.761609 0.607452 0.225730
vn -0.761609 0.607452 0.225730
vn -0.761609 0.607452 0.225730
vn -0.761355 0.604243 0.235008
vn -0.761355 0.604243 0.235008
vn -0.761355 0.604243 0.235008
vn 0.000000 0.997630 0.068802
vn 0.000000 0.997630 0.068802
vn 0.000000 0.997630 0.068802
vn 0.761355 0.604243 0.235008
vn 0.761355 0.604243 0.235008
vn 0.761355 0.604243 0.235008
vn 0.761609 0.607452 0.225730
vn 0.761609 0.607452 0.225730
vn 0.761609 0.607452 0.225730
vn -0.823828 0.565173 0.043426
vn -0.823828 0.565173 0.043426
vn -0.823829 0.565173 0.043426
vn 0.026637 0.996995 0.072741
vn 0.026637 0.996995 0.072741
vn 0.026637 0.996995 0.072741
vn 0.000000 0.997969 0.063700
vn 0.000000 0.997969 0.063700
vn 0.000000 0.997969 0.063700
vn 0.000000 -0.960346 0.278810
vn 0.000000 -0.960346 0.278810
vn 0.000000 -0.960346 0.278810
vn 0.000000 -0.960346 0.278810
vn 0.000000 -0.960346 0.278810
vn 0.000000 -0.960346 0.278810
vn -0.025724 -0.961732 0.272781
vn -0.025724 -0.961732 0.272781
vn -0.025724 -0.961732 0.272781
vn 0.000000 0.997822 0.065972
vn 0.000000 0.997822 0.065972
vn 0.000000 0.997822 0.065972
vn 0.000000 -0.960346 0.278810
vn 0.000000 -0.960346 0.278810
vn 0.000000 -0.960346 0.278810
vn -0.009088 -0.999654 0.024705
vn -0.001354 -0.999594 0.028457
vn 0.010235 -0.999367 0.034076
vn 0.019595 -0.999062 0.038611
vn 0.320328 -0.944779 0.069152
vn 0.320328 -0.944779 0.069152
vn 0.320328 -0.944779 0.069152
vn 0.310936 -0.923837 -0.223260
vn 0.310936 -0.923837 -0.223260
vn 0.310936 -0.923836 -0.223260
vn 0.314656 -0.947149 -0.062449
vn 0.314656 -0.947149 -0.062449
vn 0.314656 -0.947149 -0.062449
vn 0.314656 -0.947149 -0.062449
vn 0.000000 0.997969 0.063700
vn 0.000000 0.997969 0.063700
vn 0.000000 0.997969 0.063700
vn 0.000000 -0.876008 -0.482297
vn 0.000000 -0.876008 -0.482297
vn 0.000000 -0.876008 -0.482297
vn -0.809816 0.586401 -0.018224
vn -0.824177 0.566240 -0.010270
vn -0.858529 0.512664 0.010204
vn -0.887282 0.460290 0.029380
vn -0.306164 0.874465 0.376265
vn -0.306164 0.874465 0.376265
vn -0.306164 0.874465 0.376265
vn 0.000000 0.998564 0.053581
vn 0.000000 0.998564 0.053581
vn 0.000000 0.998564 0.053581
vn 0.000000 0.998564 0.053581
vn -0.009047 -0.995155 0.097897
vn -0.009047 -0.995155 0.097897
vn -0.009047 -0.995155 0.097897
vn -1.000000 0.000000 0.000000
vn -1.000000 0.000000 0.000000
vn -1.000000 0.000000 0.000000
vn -1.000000 0.000000 0.000000
vn -1.000000 0.000000 0.000000
vn -1.000000 0.000000 0.000000
vn -1.000000 0.000000 0.000000
vn -1.000000 0.000000 0.000000
vn -1.000000 0.000000 0.000000
vn -1.000000 0.000000 0.000000
vn -0.011027 0.998503 0.053578
vn -0.011027 0.998503 0.053578
vn -0.011027 0.998503 0.053578
vn -0.011027 0.998503 0.053578
vn 0.877764 0.478089 0.031006
vn 0.878992 0.475878 0.030208
vn 0.884808 0.465210 0.026372
vn 0.887275 0.460578 0.024714
vn 1.000000 0.000000 0.000000
vn 1.000000 0.000000 0.000000
vn 1.000000 0.000000 0.000000
vn 1.000000 0.000000 0.000000
vn -0.887275 0.460578 0.024714
vn -0.878992 0.475878 0.030208
vn -0.884808 0.465210 0.026372
vn -0.877764 0.478089 0.031006
vn 0.021456 -0.983786 -0.178059
vn 0.021456 -0.983786 -0.178060
vn 0.021456 -0.983786 -0.178059
vn -0.013323 -0.983702 -0.179313
vn -0.013323 -0.983702 -0.179313
vn -0.013323 -0.983702 -0.179313
vn -0.011020 0.997908 0.063696
vn -0.012563 0.997838 0.064513
vn -0.013941 0.997772 0.065242
vn -0.014224 0.997758 0.065392
vn 0.000000 0.997969 0.063700
vn 0.006969 0.997702 0.067390
vn 0.003681 0.997836 0.065650
vn 0.007642 0.997673 0.067746
vn 0.307253 -0.948420 0.078065
vn 0.307253 -0.948420 0.078065
vn 0.307253 -0.948420 0.078065
vn -0.320328 -0.944779 0.069152
vn -0.320328 -0.944779 0.069152
vn -0.320328 -0.944779 0.069152
vn 0.000592 0.999013 0.044414
vn 0.000592 0.999013 0.044414
vn 0.000592 0.999013 0.044414
vn -0.006580 0.998384 0.056447
vn -0.006580 0.998384 0.056447
vn -0.006580 0.998384 0.056447
vn 0.000000 0.997969 0.063700
vn 0.000000 0.997969 0.063700
vn 0.000000 0.997969 0.063700
vn -0.000729 0.998503 0.054687
vn -0.000729 0.998503 0.054687
vn -0.000729 0.998503 0.054687
vn 0.017861 0.998872 0.043997
vn 0.017861 0.998872 0.043997
vn 0.017861 0.998872 0.043997
vn -0.590142 -0.791709 -0.157894
vn -0.586217 -0.794852 -0.156716
vn -0.581262 -0.798773 -0.155230
vn -0.580977 -0.798997 -0.155145
vn 0.912819 0.302011 -0.274864
vn 0.987569 0.099446 -0.121734
vn 0.979953 0.133608 -0.147786
vn 0.989821 0.087268 -0.112426
vn 0.590141 -0.791709 -0.157894
vn 0.581262 -0.798773 -0.155230
vn 0.586217 -0.794852 -0.156716
vn 0.580977 -0.798997 -0.155145
vn -0.989821 0.087268 -0.112426
vn -0.987568 0.099446 -0.121734
vn -0.979953 0.133608 -0.147786
vn -0.912820 0.302011 -0.274864
vn 0.000000 0.982339 -0.187112
vn 0.000000 0.982339 -0.187112
vn 0.000000 0.982339 -0.187112
vn 0.000000 0.982339 -0.187112
vn 0.000000 0.076696 -0.997055
vn 0.000000 0.076696 -0.997055
vn 0.000000 0.076696 -0.997055
vn 0.000000 0.076696 -0.997055
vn 0.000000 0.076696 -0.997055
vn 0.000000 0.076696 -0.997055
vn 0.000000 0.124035 -0.992278
vn 0.000000 0.124035 -0.992278
vn 0.000000 0.124035 -0.992278
s off
g GameObject
usemtl lambert2SG
f 2/190/1 53/189/2 47/188/3
f 10/150/4 21/151/5 3/152/6
s 1
f 3/38/7 5/39/8 10/37/9
f 10/37/9 5/39/8 9/40/10
s 2
f 5/20/11 1/21/12 9/19/13
f 9/19/13 1/21/12 7/22/14
s off
f 6/1/15 18/2/16 2/3/17
s 3
f 18/65/18 6/66/19 19/68/20
f 19/68/20 6/66/19 4/67/21
s off
f 47/153/22 19/154/23 2/155/24
f 8/95/25 15/96/26 14/97/27
f 8/95/28 14/97/29 12/98/30
s 4
f 3/38/31 15/41/32 5/39/33
f 5/39/33 15/41/32 8/42/34
s 5
f 52/58/35 18/59/36 20/57/37
f 20/57/37 18/59/36 19/60/38
s off
f 6/73/39 2/74/40 4/75/41
f 41/23/42 13/24/43 12/25/44
s 6
f 11/156/45 14/157/46 3/152/47
f 3/152/47 14/157/46 15/158/48
s off
f 11/156/49 3/152/50 21/151/51
s 7
f 10/150/52 20/159/53 21/151/54
f 21/151/54 20/159/53 47/153/55
s off
f 23/187/56 46/186/57 17/185/58
f 40/144/59 41/145/60 11/146/61
f 40/144/62 11/146/63 32/147/64
s 8
f 30/43/65 26/44/66 31/46/67
f 31/46/67 26/44/66 24/45/68
s 9
f 28/26/69 22/27/70 30/29/71
f 30/29/71 22/27/70 26/28/72
s off
f 27/4/73 23/5/74 48/6/75
s 10
f 25/69/76 27/70/77 49/72/78
f 49/72/78 27/70/77 48/71/79
s off
f 43/184/80 38/183/81 36/182/82
f 43/184/83 36/182/84 42/181/85
f 33/99/86 44/100/87 45/101/88
f 33/99/89 45/101/90 29/102/91
f 12/148/92 11/146/93 41/145/94
s 11
f 24/45/95 26/44/96 45/47/97
f 45/47/97 26/44/96 29/48/98
s off
f 51/196/99 32/197/100 28/198/101
f 44/112/102 33/113/103 32/114/104
f 37/83/105 39/84/106 35/85/107
f 13/89/108 38/90/109 1/91/110
f 34/174/111 36/175/112 40/176/113
g textureEditorIsolateSelectSet GameObject
f 43/86/114 1/87/115 38/88/116
f 42/92/117 36/93/118 22/94/119
g GameObject
f 13/89/120 41/177/121 38/90/122
s 12
f 38/79/123 41/80/124 36/82/125
f 36/82/125 41/80/124 40/81/126
s off
g textureEditorIsolateSelectSet GameObject
f 39/172/127 42/92/128 22/94/129
f 39/172/130 22/94/131 35/173/132
g GameObject
f 39/180/133 43/184/134 42/181/135
g textureEditorIsolateSelectSet GameObject
f 39/172/136 37/200/137 1/87/138
f 39/172/139 1/87/140 43/86/141
g GameObject
f 34/174/142 22/178/143 36/175/144
f 7/22/145 1/21/146 37/30/147
f 33/31/148 34/32/149 40/33/150
f 32/138/151 11/139/152 37/140/153
f 32/138/154 37/140/155 35/141/156
f 7/142/157 37/140/158 11/139/159
f 35/34/160 22/27/161 28/26/162
f 35/141/163 28/143/164 32/138/165
s 13
f 31/161/166 51/162/167 50/160/168
f 50/160/168 51/162/167 46/163/169
s off
f 25/164/170 49/165/171 23/166/172
f 32/167/173 51/162/174 24/168/175
s 14
f 45/169/176 44/170/177 24/168/178
f 24/168/178 44/170/177 32/167/179
s off
f 33/31/180 29/35/181 34/32/182
f 33/149/183 40/144/184 32/147/185
s 15
f 49/62/186 48/63/187 50/61/188
f 50/61/188 48/63/187 16/64/189
s off
f 27/76/190 25/77/191 23/78/192
s 16
f 17/7/193 28/8/194 16/10/195
f 16/10/195 28/8/194 30/9/196
s off
f 31/161/197 24/168/198 51/162/199
f 11/199/200 21/179/201 7/195/202
f 14/115/203 11/116/204 12/117/205
s 17
f 53/194/206 7/195/207 47/193/208
f 47/193/208 7/195/207 21/179/209
s 18
f 52/11/210 9/12/211 53/14/212
f 53/14/212 9/12/211 7/13/213
s 19
f 10/54/214 9/55/215 20/53/216
f 20/53/216 9/55/215 52/56/217
s 20
f 51/196/218 28/198/219 46/192/220
f 46/192/220 28/198/219 17/191/221
s 21
f 16/49/222 30/50/223 50/52/224
f 50/52/224 30/50/223 31/51/225
s off
f 50/160/226 46/163/227 49/165/228
f 20/159/229 19/154/230 47/153/231
s 22
f 52/15/232 53/16/233 18/2/234
f 18/2/234 53/16/233 2/3/235
s 23
f 16/17/236 48/6/237 17/18/238
f 17/18/238 48/6/237 23/5/239
s off
f 46/163/240 23/166/241 49/165/242
f 4/171/243 2/155/244 19/154/245
f 13/24/246 1/21/247 5/20/248
f 13/24/249 5/20/250 8/36/251
f 8/36/252 12/25/253 13/24/254
f 29/35/255 26/28/256 22/27/257
f 29/35/258 22/27/259 34/32/260
s 24
f 60/134/261 62/135/262 61/137/263
f 61/137/263 62/135/262 63/136/264
s 25
f 56/127/265 57/128/266 54/126/267
f 54/126/267 57/128/266 55/129/268
s 26
f 54/131/269 55/132/270 62/130/271
f 62/130/271 55/132/270 63/133/272
s 27
f 61/123/273 59/124/274 60/122/275
f 60/122/275 59/124/274 58/125/276
s 28
f 56/118/277 58/119/278 57/121/279
f 57/121/279 58/119/278 59/120/280
s off
f 56/103/281 54/104/282 60/105/283
f 56/106/284 60/107/285 58/108/286
f 62/109/287 60/110/288 54/111/289
